<svg version="1.2" xmlns="http://www.w3.org/2000/svg" viewBox="0 0 750 500" width="750" height="500">
	<title>2571998-ai</title>
	<defs>
		<clipPath clipPathUnits="userSpaceOnUse" id="cp1">
			<path d="m750 500h-750v-500h750z"/>
		</clipPath>
		<linearGradient id="g1" x1="134.1" y1="-300.6" x2="864.5" y2="212.4" gradientUnits="userSpaceOnUse">
			<stop offset=".5" stop-color="#2a2b5c"/>
			<stop offset="1" stop-color="#335dab"/>
		</linearGradient>
		<linearGradient id="g2" x1="177.6" y1="767" x2="-286.6" y2="331.7" gradientUnits="userSpaceOnUse">
			<stop offset=".1" stop-color="#ec108e" stop-opacity="0"/>
			<stop offset=".5" stop-color="#ec108e" stop-opacity="0"/>
			<stop offset="1" stop-color="#126239"/>
		</linearGradient>
		<linearGradient id="g3" x1="253.8" y1="-13.9" x2="543.3" y2="-246.4" gradientUnits="userSpaceOnUse">
			<stop offset=".1" stop-color="#352f6d" stop-opacity="0"/>
			<stop offset="1" stop-color="#296bb4"/>
		</linearGradient>
		<linearGradient id="g4" x1="71.3" y1="666.8" x2="-316.8" y2="302.8" gradientUnits="userSpaceOnUse">
			<stop offset=".1" stop-color="#ec108e" stop-opacity="0"/>
			<stop offset=".5" stop-color="#ec108e" stop-opacity="0"/>
			<stop offset="1" stop-color="#126239"/>
		</linearGradient>
		<linearGradient id="g5" x1="253.8" y1="-13.9" x2="543.3" y2="-246.4" gradientUnits="userSpaceOnUse">
			<stop offset=".1" stop-color="#352f6d" stop-opacity="0"/>
			<stop offset="1" stop-color="#296bb4"/>
		</linearGradient>
		<radialGradient id="g6" cx="658.6" cy="229.1" r="208.8" gradientUnits="userSpaceOnUse">
			<stop offset="0" stop-color="#fceff0"/>
			<stop offset="1" stop-color="#124b50" stop-opacity="0"/>
		</radialGradient>
		<radialGradient id="g7" cx="364.5" cy="232.8" r="183.2" gradientUnits="userSpaceOnUse">
			<stop offset="0" stop-color="#fceff0"/>
			<stop offset="1" stop-color="#124b50" stop-opacity="0"/>
		</radialGradient>
		<radialGradient id="g8" cx="76.3" cy="74" r="213.1" gradientUnits="userSpaceOnUse">
			<stop offset="0" stop-color="#fceff0"/>
			<stop offset="1" stop-color="#124b50" stop-opacity="0"/>
		</radialGradient>
		<radialGradient id="g9" cx="23.7" cy="322" r="250.9" gradientUnits="userSpaceOnUse">
			<stop offset="0" stop-color="#fceff0"/>
			<stop offset="1" stop-color="#124b50" stop-opacity="0"/>
		</radialGradient>
		<radialGradient id="g10" cx="-336" cy="-151.9" r="250.9" gradientUnits="userSpaceOnUse">
			<stop offset="0" stop-color="#fceff0"/>
			<stop offset="1" stop-color="#124b50" stop-opacity="0"/>
		</radialGradient>
		<radialGradient id="g11" cx="757.8" cy="465" r="250.9" gradientUnits="userSpaceOnUse">
			<stop offset="0" stop-color="#fceff0"/>
			<stop offset="1" stop-color="#124b50" stop-opacity="0"/>
		</radialGradient>
		<radialGradient id="g12" cx="59.1" cy="21.8" r="283.2" gradientUnits="userSpaceOnUse">
			<stop offset="0" stop-color="#fceff0"/>
			<stop offset="1" stop-color="#124b50" stop-opacity="0"/>
		</radialGradient>
		<radialGradient id="g13" cx="393.6" cy="7.5" r="185" gradientUnits="userSpaceOnUse">
			<stop offset="0" stop-color="#fceff0"/>
			<stop offset="1" stop-color="#124b50" stop-opacity="0"/>
		</radialGradient>
		<linearGradient id="g14" x1="86.1" y1="552.9" x2="-239.4" y2="247.7" gradientUnits="userSpaceOnUse">
			<stop offset=".1" stop-color="#ec108e" stop-opacity="0"/>
			<stop offset=".5" stop-color="#ec108e" stop-opacity="0"/>
			<stop offset="1" stop-color="#126239"/>
		</linearGradient>
		<linearGradient id="g15" x1="253.8" y1="-13.9" x2="543.3" y2="-246.4" gradientUnits="userSpaceOnUse">
			<stop offset=".1" stop-color="#352f6d" stop-opacity="0"/>
			<stop offset="1" stop-color="#296bb4"/>
		</linearGradient>
	</defs>
	<style>
		.s0 { fill: #ffffff } 
		.s1 { fill: url(#g1) } 
		.s2 { fill: none;stroke: #7dfffd } 
		.s3 { fill: none;stroke: #7dfffd;stroke-width: 5 } 
		.s4 { fill: #7dfffd;stroke: #7dfffd } 
		.s5 { fill: none;stroke: #7dfffd;stroke-linecap: round;stroke-linejoin: round;stroke-width: 14 } 
		.s6 { fill: none;stroke: #7dfffd;stroke-linecap: round;stroke-linejoin: round;stroke-width: 3 } 
		.s7 { fill: #7dfffd } 
		.s8 { fill: none;stroke: #7dfffd;stroke-width: 6 } 
		.s9 { fill: none;stroke: #ccfffd } 
		.s10 { fill: #ccfffd } 
		.s11 { mix-blend-mode: multiply;fill: url(#g2) } 
		.s12 { opacity: .4;fill: url(#g3) } 
		.s13 { mix-blend-mode: multiply;fill: url(#g4) } 
		.s14 { opacity: .4;fill: url(#g5) } 
		.s15 { mix-blend-mode: overlay;fill: url(#g6) } 
		.s16 { mix-blend-mode: overlay;fill: url(#g7) } 
		.s17 { mix-blend-mode: overlay;fill: url(#g8) } 
		.s18 { mix-blend-mode: overlay;fill: url(#g9) } 
		.s19 { mix-blend-mode: overlay;fill: url(#g10) } 
		.s20 { mix-blend-mode: overlay;fill: url(#g11) } 
		.s21 { mix-blend-mode: overlay;fill: url(#g12) } 
		.s22 { mix-blend-mode: overlay;fill: url(#g13) } 
		.s23 { mix-blend-mode: multiply;fill: url(#g14) } 
		.s24 { opacity: .4;fill: url(#g15) } 
	</style>
	<g id="_Artboards_">
		<path id="Mesa de trabajo 1 copia" class="s0" d="m0 0h750v500h-750z"/>
	</g>
	<g id="BACKGROUND 2">
		<g id="&lt;Clip Group&gt;" clip-path="url(#cp1)">
			<path id="&lt;Path&gt;" class="s1" d="m756.3 509.1h-757.8v-515.6h757.8z"/>
			<g id="&lt;Group&gt;" style="opacity: .4;mix-blend-mode: overlay">
				<path id="&lt;Path&gt;" class="s2" d="m254.7 175.4h-24l-20.7 20.7h-33.3l-74-73.3h-39.3l-17.4-18.7h-28.6l-12-11.3"/>
				<path id="&lt;Path&gt;" class="s2" d="m-5.5 110.1h47.5l20 20.7h38l72.7 73.3h40.7"/>
				<path id="&lt;Path&gt;" class="s2" d="m5.4 121.1h38l16 17h39l11.5 12v7"/>
				<path id="&lt;Path&gt;" class="s2" d="m280.4 160.1h-28l-7 8h-15.5l-22 21h-28.5l-18.5-17.5v-8.5"/>
				<path id="&lt;Path&gt;" class="s2" d="m86.9 168.1h-47l-10-11h-35.4"/>
				<path id="&lt;Path&gt;" class="s2" d="m273.4 193.1l-18.7 20h-86.3l-33.5-34h-98.5l-13-13.5h-10"/>
				<path id="&lt;Path&gt;" class="s2" d="m10.9 204.1h11.5l14-14.8h82l6.5 7.4"/>
				<path id="&lt;Path&gt;" class="s2" d="m301.4 202.1h-24l-17 18.5h-94.5l-35.9-37h-135.5"/>
				<path id="&lt;Path&gt;" class="s2" d="m249.9 228.6h-22.5l-6.8 8h-68.7l-16.5-16h-96.5"/>
				<path id="&lt;Path&gt;" class="s2" d="m277.9 231.6l-12 12h-115l-17-17h-120.5"/>
				<path id="&lt;Path&gt;" class="s2" d="m-5.5 246.1h10.9l13.5-13.5h113l16 16.5h125.5l12.5-12.5h9"/>
				<path id="&lt;Path&gt;" class="s2" d="m127.4 255.6l-11 11h-58.8l-11.7-14.5h-15"/>
				<path id="&lt;Path&gt;" class="s2" d="m152.4 257.1h-9l-16 16.5h-74l-10-12.5h-48.9"/>
				<path id="&lt;Path&gt;" class="s2" d="m320.4 254.6h-121l-33.5 32.5h-112l-13.2-13.5h-29.8"/>
				<path id="&lt;Path&gt;" class="s2" d="m294.9 265.3h-7.5l-5-6h-79l-32.5 32.8h-120l-12-13.5h-15l-10.5 11"/>
				<path id="&lt;Path&gt;" class="s2" d="m134.4 311.1h-14l-7.5 7.5h-26l-13.5 13.5h-51.5l-8.5-8.5"/>
				<path id="&lt;Path&gt;" class="s2" d="m120.9 324.1h-28.5l-13.3 12.5h-65.7"/>
				<path id="&lt;Path&gt;" class="s2" d="m264.9 270.8l-5.5-5.5h-51.5l-33.5 32.8v13l-34.5 35.5h-126.5l-22 22"/>
				<path id="&lt;Path&gt;" class="s2" d="m197.4 313.6h-14.5l-37.3 38.5h-129.2l-11 10.5v6"/>
				<path id="&lt;Path&gt;" class="s2" d="m197.4 330.3h-20.5l-29 29.3h-117"/>
				<path id="&lt;Path&gt;" class="s2" d="m74.4 375.1l-43 43.5h-36.3"/>
				<path id="&lt;Path&gt;" class="s2" d="m89.9 372.6l-5 6h-7.5l-46 46h-36.3"/>
				<path id="&lt;Path&gt;" class="s2" d="m87.4 384.6h-7.7l-44.9 45.5h-39.7"/>
				<path id="&lt;Path&gt;" class="s2" d="m91.9 395.8l-4.5-4.2h-5l-43 45h-44.3"/>
				<path id="&lt;Path&gt;" class="s2" d="m80.4 407.3h-4l-33.9 34.8h-50.6"/>
				<path id="&lt;Path&gt;" class="s2" d="m135.4 383.1l-52 53h-15.5"/>
				<path id="&lt;Path&gt;" class="s2" d="m145.6 423.1h-6.2l-46.5 47h-55.2"/>
				<path id="&lt;Path&gt;" class="s2" d="m168.4 411.6v9l-64.5 63h-29.5l-14.5 16h-54.5"/>
				<path id="&lt;Path&gt;" class="s2" d="m114.1 528.6v-42.7l83.3-80.8h39l26-24.5v-62l32.5-31.5v-8"/>
				<path id="&lt;Path&gt;" class="s2" d="m120.9 505.1v-17.9l76.5-74.1h42.5l10-9.3"/>
				<path id="&lt;Path&gt;" class="s2" d="m89.9 495.6h-8.5l-14.3 15.5h-56.2"/>
				<path id="&lt;Path&gt;" class="s2" d="m89.9 508.6h11.5l6.5 9v11"/>
				<path id="&lt;Path&gt;" class="s2" d="m-8.1 515.6h9.5l6.5 8h8l6.5-8h42l9 8h18.3"/>
				<path id="&lt;Path&gt;" class="s3" d="m139.9 515.6v-26l57.5-57h37.5"/>
				<path id="&lt;Path&gt;" class="s2" d="m180.9 528.6v-43.4l23.6-23.6v-10"/>
				<path id="&lt;Path&gt;" class="s2" d="m187.4 530.6v-42.8l36-36.2"/>
				<path id="&lt;Path&gt;" class="s2" d="m192.7 530.6v-40.5l25.7-25.5h8.5"/>
				<path id="&lt;Path&gt;" class="s2" d="m269.9 411.6v-92.5l51.1-48.3"/>
				<path id="&lt;Path&gt;" class="s2" d="m277.9 290.1v5l-23.2 21.9v58.1l-22.8 22h-37.5"/>
				<path id="&lt;Path&gt;" class="s2" d="m283 284.3c0 2.8-2.3 5.2-5.1 5.2-2.9 0-5.2-2.4-5.2-5.2 0-2.9 2.3-5.2 5.2-5.2 2.8 0 5.1 2.3 5.1 5.2z"/>
				<path id="&lt;Path&gt;" class="s2" d="m305.2 265.3c0 2.9-2.3 5.2-5.2 5.2-2.8 0-5.1-2.3-5.1-5.2 0-2.8 2.3-5.2 5.1-5.2 2.9 0 5.2 2.4 5.2 5.2z"/>
				<path id="&lt;Path&gt;" class="s2" d="m327.5 239.5c0 2.8-2.3 5.1-5.2 5.1-2.9 0-5.2-2.3-5.2-5.1 0-2.9 2.3-5.2 5.2-5.2 2.9 0 5.2 2.3 5.2 5.2z"/>
				<path id="&lt;Path&gt;" class="s2" d="m327.5 287.1c0 2.9-2.3 5.2-5.2 5.2-2.9 0-5.2-2.3-5.2-5.2 0-2.9 2.3-5.2 5.2-5.2 2.9 0 5.2 2.3 5.2 5.2z"/>
				<path id="&lt;Path&gt;" class="s2" d="m348.2 313.6c0 2.9-2.3 5.2-5.2 5.2-2.8 0-5.1-2.3-5.1-5.2 0-2.9 2.3-5.2 5.1-5.2 2.9 0 5.2 2.3 5.2 5.2z"/>
				<path id="&lt;Path&gt;" class="s2" d="m294.9 318.8c0 2.8-2.4 5.2-5.2 5.2-2.9 0-5.2-2.4-5.2-5.2 0-2.9 2.3-5.2 5.2-5.2 2.8 0 5.2 2.3 5.2 5.2z"/>
				<path id="&lt;Path&gt;" class="s2" d="m162.7 257.1c0 2.9-2.3 5.2-5.2 5.2-2.8 0-5.1-2.3-5.1-5.2 0-2.9 2.3-5.2 5.1-5.2 2.9 0 5.2 2.3 5.2 5.2z"/>
				<path id="&lt;Path&gt;" class="s2" d="m136.2 252.1c0 2.9-2.3 5.2-5.2 5.2-2.8 0-5.2-2.3-5.2-5.2 0-2.9 2.4-5.2 5.2-5.2 2.9 0 5.2 2.3 5.2 5.2z"/>
				<path id="&lt;Path&gt;" class="s2" d="m15 293.6c0 2.9-2.3 5.2-5.1 5.2-2.9 0-5.2-2.3-5.2-5.2 0-2.8 2.3-5.1 5.2-5.1 2.8 0 5.1 2.3 5.1 5.1z"/>
				<path id="&lt;Path&gt;" class="s2" d="m15 319.9c0 2.9-2.3 5.2-5.1 5.2-2.9 0-5.2-2.3-5.2-5.2 0-2.9 2.3-5.2 5.2-5.2 2.8 0 5.1 2.3 5.1 5.2z"/>
				<path id="&lt;Path&gt;" class="s2" d="m14 336.6c0 2.9-2.3 5.2-5.1 5.2-2.9 0-5.2-2.3-5.2-5.2 0-2.9 2.3-5.2 5.2-5.2 2.8 0 5.1 2.3 5.1 5.2z"/>
				<path id="&lt;Path&gt;" class="s2" d="m131 324.1c0 2.9-2.3 5.2-5.2 5.2-2.8 0-5.2-2.3-5.2-5.2 0-2.9 2.4-5.2 5.2-5.2 2.9 0 5.2 2.3 5.2 5.2z"/>
				<path id="&lt;Path&gt;" class="s2" d="m30.9 251.9c0 2.9-2.4 5.2-5.2 5.2-2.9 0-5.2-2.3-5.2-5.2 0-2.9 2.3-5.2 5.2-5.2 2.8 0 5.2 2.3 5.2 5.2z"/>
				<path id="&lt;Path&gt;" class="s2" d="m13 226.6c0 2.9-2.3 5.2-5.1 5.2-2.9 0-5.2-2.3-5.2-5.2 0-2.9 2.3-5.2 5.2-5.2 2.8 0 5.1 2.3 5.1 5.2z"/>
				<path id="&lt;Path&gt;" class="s2" d="m10.9 204.1c0 2.9-2.4 5.2-5.2 5.2-2.9 0-5.2-2.3-5.2-5.2 0-2.9 2.3-5.2 5.2-5.2 2.8 0 5.2 2.3 5.2 5.2z"/>
				<path id="&lt;Path&gt;" class="s2" d="m14 166.4c0 2.9-2.3 5.2-5.1 5.2-2.9 0-5.2-2.3-5.2-5.2 0-2.9 2.3-5.2 5.2-5.2 2.8 0 5.1 2.3 5.1 5.2z"/>
				<path id="&lt;Path&gt;" class="s2" d="m115 162.6c0 2.9-2.3 5.2-5.1 5.2-2.9 0-5.2-2.3-5.2-5.2 0-2.9 2.3-5.2 5.2-5.2 2.8 0 5.1 2.3 5.1 5.2z"/>
				<path id="&lt;Path&gt;" class="s2" d="m193.7 115.9c0 2.9-2.3 5.2-5.2 5.2-2.9 0-5.2-2.3-5.2-5.2 0-2.9 2.3-5.2 5.2-5.2 2.9 0 5.2 2.3 5.2 5.2z"/>
				<path id="&lt;Path&gt;" class="s2" d="m279.5 144.4c0 2.9-2.3 5.2-5.1 5.2-2.9 0-5.2-2.3-5.2-5.2 0-2.8 2.3-5.2 5.2-5.2 2.8 0 5.1 2.4 5.1 5.2z"/>
				<path id="&lt;Path&gt;" class="s2" d="m326.1 64.1c0 2.9-2.3 5.2-5.1 5.2-2.9 0-5.2-2.3-5.2-5.2 0-2.9 2.3-5.2 5.2-5.2 2.8 0 5.1 2.3 5.1 5.2z"/>
				<path id="&lt;Path&gt;" class="s2" d="m333.7 105.9c0 2.9-2.4 5.2-5.2 5.2-2.9 0-5.2-2.3-5.2-5.2 0-2.9 2.3-5.2 5.2-5.2 2.8 0 5.2 2.3 5.2 5.2z"/>
				<path id="&lt;Path&gt;" class="s2" d="m502.3 143.9c0 2.8-2.3 5.1-5.2 5.1-2.8 0-5.2-2.3-5.2-5.1 0-2.9 2.4-5.2 5.2-5.2 2.9 0 5.2 2.3 5.2 5.2z"/>
				<path id="&lt;Path&gt;" class="s2" d="m430.5 146.3c0 2.8-2.3 5.2-5.2 5.2-2.9 0-5.2-2.4-5.2-5.2 0-2.9 2.3-5.2 5.2-5.2 2.9 0 5.2 2.3 5.2 5.2z"/>
				<path id="&lt;Path&gt;" class="s2" d="m432.2 131.8c0 2.8-2.4 5.2-5.2 5.2-2.9 0-5.2-2.4-5.2-5.2 0-2.9 2.3-5.2 5.2-5.2 2.8 0 5.2 2.3 5.2 5.2z"/>
				<path id="&lt;Path&gt;" class="s2" d="m444.8 135.3c0 2.9-2.3 5.2-5.2 5.2-2.9 0-5.2-2.3-5.2-5.2 0-2.8 2.3-5.1 5.2-5.1 2.9 0 5.2 2.3 5.2 5.1z"/>
				<path id="&lt;Path&gt;" class="s2" d="m465 105.9c0 2.9-2.4 5.2-5.2 5.2-2.9 0-5.2-2.3-5.2-5.2 0-2.9 2.3-5.2 5.2-5.2 2.8 0 5.2 2.3 5.2 5.2z"/>
				<path id="&lt;Path&gt;" class="s2" d="m490.7 112.4c0 2.9-2.3 5.2-5.2 5.2-2.8 0-5.2-2.3-5.2-5.2 0-2.8 2.4-5.2 5.2-5.2 2.9 0 5.2 2.4 5.2 5.2z"/>
				<path id="&lt;Path&gt;" class="s2" d="m508.8 112.4c0 2.9-2.3 5.2-5.2 5.2-2.9 0-5.2-2.3-5.2-5.2 0-2.8 2.3-5.2 5.2-5.2 2.9 0 5.2 2.4 5.2 5.2z"/>
				<path id="&lt;Path&gt;" class="s2" d="m494.7 85.2c0 2.8-2.3 5.2-5.2 5.2-2.8 0-5.1-2.4-5.1-5.2 0-2.9 2.3-5.2 5.1-5.2 2.9 0 5.2 2.3 5.2 5.2z"/>
				<path id="&lt;Path&gt;" class="s2" d="m467.4 33.4c0 2.8-2.3 5.1-5.2 5.1-2.9 0-5.2-2.3-5.2-5.1 0-2.9 2.3-5.2 5.2-5.2 2.9 0 5.2 2.3 5.2 5.2z"/>
				<path id="&lt;Path&gt;" class="s2" d="m480.3 48.6c0 2.9-2.3 5.2-5.2 5.2-2.8 0-5.1-2.3-5.1-5.2 0-2.8 2.3-5.2 5.1-5.2 2.9 0 5.2 2.4 5.2 5.2z"/>
				<path id="&lt;Path&gt;" class="s2" d="m548.2 17.9c0 2.9-2.4 5.2-5.2 5.2-2.9 0-5.2-2.3-5.2-5.2 0-2.8 2.3-5.1 5.2-5.1 2.8 0 5.2 2.3 5.2 5.1z"/>
				<path id="&lt;Path&gt;" class="s2" d="m631.5 8.9c0 2.8-2.3 5.2-5.1 5.2-2.9 0-5.2-2.4-5.2-5.2 0-2.9 2.3-5.2 5.2-5.2 2.8 0 5.1 2.3 5.1 5.2z"/>
				<path id="&lt;Path&gt;" class="s2" d="m646 8.9c0 2.8-2.3 5.2-5.1 5.2-2.9 0-5.2-2.4-5.2-5.2 0-2.9 2.3-5.2 5.2-5.2 2.8 0 5.1 2.3 5.1 5.2z"/>
				<path id="&lt;Path&gt;" class="s2" d="m660.5 8.9c0 2.8-2.3 5.2-5.1 5.2-2.9 0-5.2-2.4-5.2-5.2 0-2.9 2.3-5.2 5.2-5.2 2.8 0 5.1 2.3 5.1 5.2z"/>
				<path id="&lt;Path&gt;" class="s2" d="m675 8.9c0 2.8-2.3 5.2-5.1 5.2-2.9 0-5.2-2.4-5.2-5.2 0-2.9 2.3-5.2 5.2-5.2 2.8 0 5.1 2.3 5.1 5.2z"/>
				<path id="&lt;Path&gt;" class="s2" d="m574.8 16.6c0 2.9-2.4 5.2-5.2 5.2-2.9 0-5.2-2.3-5.2-5.2 0-2.8 2.3-5.2 5.2-5.2 2.8 0 5.2 2.4 5.2 5.2z"/>
				<path id="&lt;Path&gt;" class="s2" d="m530.4 112c0 2.9-2.3 5.2-5.2 5.2-2.8 0-5.2-2.3-5.2-5.2 0-2.9 2.4-5.2 5.2-5.2 2.9 0 5.2 2.3 5.2 5.2z"/>
				<path id="&lt;Path&gt;" class="s2" d="m742.1 45.5c0 2.8-2.3 5.2-5.2 5.2-2.8 0-5.1-2.4-5.1-5.2 0-2.9 2.3-5.2 5.1-5.2 2.9 0 5.2 2.3 5.2 5.2z"/>
				<path id="&lt;Path&gt;" class="s2" d="m750.1 62.4c0 2.8-2.3 5.1-5.2 5.1-2.8 0-5.1-2.3-5.1-5.1 0-2.9 2.3-5.2 5.1-5.2 2.9 0 5.2 2.3 5.2 5.2z"/>
				<path id="&lt;Path&gt;" class="s2" d="m664.7 209.3c0 2.8-2.3 5.2-5.2 5.2-2.8 0-5.1-2.4-5.1-5.2 0-2.9 2.3-5.2 5.1-5.2 2.9 0 5.2 2.3 5.2 5.2z"/>
				<path id="&lt;Path&gt;" class="s2" d="m550.7 112c0 2.9-2.4 5.2-5.2 5.2-2.9 0-5.2-2.3-5.2-5.2 0-2.9 2.3-5.2 5.2-5.2 2.8 0 5.2 2.3 5.2 5.2z"/>
				<path id="&lt;Path&gt;" class="s2" d="m574.8 0.4c0 2.9-2.3 5.2-5.2 5.2-2.9 0-5.2-2.3-5.2-5.2 0-2.8 2.3-5.1 5.2-5.1 2.9 0 5.2 2.3 5.2 5.1z"/>
				<path id="&lt;Path&gt;" class="s2" d="m590.5-0.5c0 2.9-2.3 5.2-5.1 5.2-2.9 0-5.2-2.3-5.2-5.2 0-2.9 2.3-5.2 5.2-5.2 2.8 0 5.1 2.3 5.1 5.2z"/>
				<path id="&lt;Path&gt;" class="s2" d="m604.4-0.5c0 2.9-2.3 5.2-5.2 5.2-2.9 0-5.2-2.3-5.2-5.2 0-2.9 2.3-5.2 5.2-5.2 2.9 0 5.2 2.3 5.2 5.2z"/>
				<path id="&lt;Path&gt;" class="s2" d="m548.2 1.8c0 2.8-2.4 5.1-5.2 5.1-2.9 0-5.2-2.3-5.2-5.1 0-2.9 2.3-5.2 5.2-5.2 2.8 0 5.2 2.3 5.2 5.2z"/>
				<path id="&lt;Path&gt;" class="s2" d="m448.7 1.8c0 2.8-2.3 5.1-5.2 5.1-2.9 0-5.2-2.3-5.2-5.1 0-2.9 2.3-5.2 5.2-5.2 2.9 0 5.2 2.3 5.2 5.2z"/>
				<path id="&lt;Path&gt;" class="s2" d="m417.1 173.5c0 2.8-2.3 5.1-5.2 5.1-2.9 0-5.2-2.3-5.2-5.1 0-2.9 2.3-5.2 5.2-5.2 2.9 0 5.2 2.3 5.2 5.2z"/>
				<path id="&lt;Path&gt;" class="s2" d="m423.6 237.6c0 2.9-2.3 5.2-5.2 5.2-2.8 0-5.2-2.3-5.2-5.2 0-2.8 2.4-5.1 5.2-5.1 2.9 0 5.2 2.3 5.2 5.1z"/>
				<path id="&lt;Path&gt;" class="s2" d="m423.6 273.9c0 2.9-2.3 5.2-5.2 5.2-2.8 0-5.2-2.3-5.2-5.2 0-2.9 2.4-5.2 5.2-5.2 2.9 0 5.2 2.3 5.2 5.2z"/>
				<path id="&lt;Path&gt;" class="s2" d="m422 329c0 2.9-2.3 5.2-5.1 5.2-2.9 0-5.2-2.3-5.2-5.2 0-2.9 2.3-5.2 5.2-5.2 2.8 0 5.1 2.3 5.1 5.2z"/>
				<path id="&lt;Path&gt;" class="s2" d="m434 329c0 2.9-2.3 5.2-5.2 5.2-2.9 0-5.2-2.3-5.2-5.2 0-2.9 2.3-5.2 5.2-5.2 2.9 0 5.2 2.3 5.2 5.2z"/>
				<path id="&lt;Path&gt;" class="s2" d="m422 341.3c0 2.9-2.3 5.2-5.1 5.2-2.9 0-5.2-2.3-5.2-5.2 0-2.8 2.3-5.2 5.2-5.2 2.8 0 5.1 2.4 5.1 5.2z"/>
				<path id="&lt;Path&gt;" class="s2" d="m434 341.3c0 2.9-2.3 5.2-5.2 5.2-2.9 0-5.2-2.3-5.2-5.2 0-2.8 2.3-5.2 5.2-5.2 2.9 0 5.2 2.4 5.2 5.2z"/>
				<path id="&lt;Path&gt;" class="s2" d="m422 353.9c0 2.9-2.3 5.2-5.1 5.2-2.9 0-5.2-2.3-5.2-5.2 0-2.8 2.3-5.1 5.2-5.1 2.8 0 5.1 2.3 5.1 5.1z"/>
				<path id="&lt;Path&gt;" class="s2" d="m434 353.9c0 2.9-2.3 5.2-5.2 5.2-2.9 0-5.2-2.3-5.2-5.2 0-2.8 2.3-5.1 5.2-5.1 2.9 0 5.2 2.3 5.2 5.1z"/>
				<path id="&lt;Path&gt;" class="s2" d="m422 366.3c0 2.8-2.3 5.1-5.1 5.1-2.9 0-5.2-2.3-5.2-5.1 0-2.9 2.3-5.2 5.2-5.2 2.8 0 5.1 2.3 5.1 5.2z"/>
				<path id="&lt;Path&gt;" class="s2" d="m434 366.3c0 2.8-2.3 5.1-5.2 5.1-2.9 0-5.2-2.3-5.2-5.1 0-2.9 2.3-5.2 5.2-5.2 2.9 0 5.2 2.3 5.2 5.2z"/>
				<path id="&lt;Path&gt;" class="s2" d="m422 378.2c0 2.9-2.3 5.2-5.1 5.2-2.9 0-5.2-2.3-5.2-5.2 0-2.8 2.3-5.2 5.2-5.2 2.8 0 5.1 2.4 5.1 5.2z"/>
				<path id="&lt;Path&gt;" class="s2" d="m353.4 346.9c0 2.8-2.3 5.1-5.2 5.1-2.8 0-5.2-2.3-5.2-5.1 0-2.9 2.4-5.2 5.2-5.2 2.9 0 5.2 2.3 5.2 5.2z"/>
				<path id="&lt;Path&gt;" class="s2" d="m353.4 359.1c0 2.9-2.3 5.2-5.2 5.2-2.8 0-5.2-2.3-5.2-5.2 0-2.8 2.4-5.2 5.2-5.2 2.9 0 5.2 2.4 5.2 5.2z"/>
				<path id="&lt;Path&gt;" class="s2" d="m353.4 371.3c0 2.9-2.3 5.2-5.2 5.2-2.8 0-5.2-2.3-5.2-5.2 0-2.8 2.4-5.2 5.2-5.2 2.9 0 5.2 2.4 5.2 5.2z"/>
				<path id="&lt;Path&gt;" class="s2" d="m353.4 383.6c0 2.9-2.3 5.2-5.2 5.2-2.8 0-5.2-2.3-5.2-5.2 0-2.9 2.4-5.2 5.2-5.2 2.9 0 5.2 2.3 5.2 5.2z"/>
				<path id="&lt;Path&gt;" class="s2" d="m353.4 396.5c0 2.9-2.3 5.2-5.2 5.2-2.8 0-5.2-2.3-5.2-5.2 0-2.8 2.4-5.2 5.2-5.2 2.9 0 5.2 2.4 5.2 5.2z"/>
				<path id="&lt;Path&gt;" class="s2" d="m434 378.2c0 2.9-2.3 5.2-5.2 5.2-2.9 0-5.2-2.3-5.2-5.2 0-2.8 2.3-5.2 5.2-5.2 2.9 0 5.2 2.4 5.2 5.2z"/>
				<path id="&lt;Path&gt;" class="s2" d="m444.3 434.2c0 2.9-2.3 5.2-5.1 5.2-2.9 0-5.2-2.3-5.2-5.2 0-2.8 2.3-5.1 5.2-5.1 2.8 0 5.1 2.3 5.1 5.1z"/>
				<path id="&lt;Path&gt;" class="s2" d="m416.4 435.9c0 2.9-2.4 5.2-5.2 5.2-2.9 0-5.2-2.3-5.2-5.2 0-2.9 2.3-5.2 5.2-5.2 2.8 0 5.2 2.3 5.2 5.2z"/>
				<path id="&lt;Path&gt;" class="s2" d="m443.5 231.4c0 2.9-2.3 5.2-5.2 5.2-2.8 0-5.2-2.3-5.2-5.2 0-2.9 2.4-5.2 5.2-5.2 2.9 0 5.2 2.3 5.2 5.2z"/>
				<path id="&lt;Path&gt;" class="s2" d="m476.8 221.1c0 2.9-2.3 5.2-5.2 5.2-2.8 0-5.2-2.3-5.2-5.2 0-2.8 2.4-5.1 5.2-5.1 2.9 0 5.2 2.3 5.2 5.1z"/>
				<path id="&lt;Path&gt;" class="s2" d="m457.3 264.4c0 2.9-2.3 5.2-5.2 5.2-2.8 0-5.2-2.3-5.2-5.2 0-2.8 2.4-5.2 5.2-5.2 2.9 0 5.2 2.4 5.2 5.2z"/>
				<path id="&lt;Path&gt;" class="s2" d="m458 293.9c0 2.9-2.3 5.2-5.2 5.2-2.8 0-5.2-2.3-5.2-5.2 0-2.9 2.4-5.2 5.2-5.2 2.9 0 5.2 2.3 5.2 5.2z"/>
				<path id="&lt;Path&gt;" class="s2" d="m482.1 313.4c0 2.8-2.4 5.2-5.2 5.2-2.9 0-5.2-2.4-5.2-5.2 0-2.9 2.3-5.2 5.2-5.2 2.8 0 5.2 2.3 5.2 5.2z"/>
				<path id="&lt;Path&gt;" class="s2" d="m506.1 438.4c0 2.9-2.3 5.2-5.2 5.2-2.9 0-5.2-2.3-5.2-5.2 0-2.8 2.3-5.2 5.2-5.2 2.9 0 5.2 2.4 5.2 5.2z"/>
				<path id="&lt;Path&gt;" class="s2" d="m520 422.9c0 2.9-2.3 5.2-5.1 5.2-2.9 0-5.2-2.3-5.2-5.2 0-2.8 2.3-5.1 5.2-5.1 2.8 0 5.1 2.3 5.1 5.1z"/>
				<path id="&lt;Path&gt;" class="s2" d="m570.1 348.8c0 2.8-2.3 5.1-5.1 5.1-2.9 0-5.2-2.3-5.2-5.1 0-2.9 2.3-5.2 5.2-5.2 2.8 0 5.1 2.3 5.1 5.2z"/>
				<path id="&lt;Path&gt;" class="s2" d="m655.2 338.4c0 2.8-2.4 5.2-5.2 5.2-2.9 0-5.2-2.4-5.2-5.2 0-2.9 2.3-5.2 5.2-5.2 2.8 0 5.2 2.3 5.2 5.2z"/>
				<path id="&lt;Path&gt;" class="s2" d="m697.4 403.3c0 2.8-2.3 5.2-5.2 5.2-2.8 0-5.1-2.4-5.1-5.2 0-2.9 2.3-5.2 5.1-5.2 2.9 0 5.2 2.3 5.2 5.2z"/>
				<path id="&lt;Path&gt;" class="s2" d="m678.8 249.4c0 2.9-2.4 5.2-5.2 5.2-2.9 0-5.2-2.3-5.2-5.2 0-2.9 2.3-5.2 5.2-5.2 2.8 0 5.2 2.3 5.2 5.2z"/>
				<path id="&lt;Path&gt;" class="s2" d="m750.1 200.1c0 2.9-2.3 5.2-5.2 5.2-2.8 0-5.1-2.3-5.1-5.2 0-2.9 2.3-5.2 5.1-5.2 2.9 0 5.2 2.3 5.2 5.2z"/>
				<path id="&lt;Path&gt;" class="s2" d="m750.1 269.6c0 2.9-2.3 5.2-5.2 5.2-2.8 0-5.1-2.3-5.1-5.2 0-2.9 2.3-5.2 5.1-5.2 2.9 0 5.2 2.3 5.2 5.2z"/>
				<path id="&lt;Path&gt;" class="s2" d="m712.4 221.1c0 2.9-2.3 5.2-5.1 5.2-2.9 0-5.2-2.3-5.2-5.2 0-2.8 2.3-5.1 5.2-5.1 2.8 0 5.1 2.3 5.1 5.1z"/>
				<path id="&lt;Path&gt;" class="s2" d="m717.3 422.9c0 2.9-2.4 5.2-5.2 5.2-2.9 0-5.2-2.3-5.2-5.2 0-2.8 2.3-5.1 5.2-5.1 2.8 0 5.2 2.3 5.2 5.1z"/>
				<path id="&lt;Path&gt;" class="s2" d="m734.1 439.8c0 2.9-2.4 5.2-5.2 5.2-2.9 0-5.2-2.3-5.2-5.2 0-2.9 2.3-5.2 5.2-5.2 2.8 0 5.2 2.3 5.2 5.2z"/>
				<path id="&lt;Path&gt;" class="s2" d="m734.1 502.4c0 2.9-2.4 5.2-5.2 5.2-2.9 0-5.2-2.3-5.2-5.2 0-2.8 2.3-5.2 5.2-5.2 2.8 0 5.2 2.4 5.2 5.2z"/>
				<path id="&lt;Path&gt;" class="s2" d="m655.2 373.3c0 2.8-2.4 5.2-5.2 5.2-2.9 0-5.2-2.4-5.2-5.2 0-2.9 2.3-5.2 5.2-5.2 2.8 0 5.2 2.3 5.2 5.2z"/>
				<path id="&lt;Path&gt;" class="s2" d="m645.1 385c0 2.8-2.4 5.1-5.2 5.1-2.9 0-5.2-2.3-5.2-5.1 0-2.9 2.3-5.2 5.2-5.2 2.8 0 5.2 2.3 5.2 5.2z"/>
				<path id="&lt;Path&gt;" class="s2" d="m632.1 397.8c0 2.8-2.3 5.2-5.2 5.2-2.8 0-5.2-2.4-5.2-5.2 0-2.9 2.4-5.2 5.2-5.2 2.9 0 5.2 2.3 5.2 5.2z"/>
				<path id="&lt;Path&gt;" class="s2" d="m642.5 434.2c0 2.9-2.3 5.2-5.2 5.2-2.9 0-5.2-2.3-5.2-5.2 0-2.8 2.3-5.1 5.2-5.1 2.9 0 5.2 2.3 5.2 5.1z"/>
				<path id="&lt;Path&gt;" class="s2" d="m642.5 486.9c0 2.9-2.3 5.2-5.2 5.2-2.9 0-5.2-2.3-5.2-5.2 0-2.9 2.3-5.2 5.2-5.2 2.9 0 5.2 2.3 5.2 5.2z"/>
				<path id="&lt;Path&gt;" class="s2" d="m687.8 505.3c0 2.8-2.3 5.2-5.2 5.2-2.8 0-5.2-2.4-5.2-5.2 0-2.9 2.4-5.2 5.2-5.2 2.9 0 5.2 2.3 5.2 5.2z"/>
				<path id="&lt;Path&gt;" class="s2" d="m673.6 494.9c0 2.9-2.3 5.2-5.2 5.2-2.9 0-5.2-2.3-5.2-5.2 0-2.9 2.3-5.2 5.2-5.2 2.9 0 5.2 2.3 5.2 5.2z"/>
				<path id="&lt;Path&gt;" class="s2" d="m585 468.8c0 2.9-2.3 5.2-5.2 5.2-2.9 0-5.2-2.3-5.2-5.2 0-2.8 2.3-5.2 5.2-5.2 2.9 0 5.2 2.4 5.2 5.2z"/>
				<path id="&lt;Path&gt;" class="s2" d="m534 439.4c0 2.9-2.3 5.2-5.1 5.2-2.9 0-5.2-2.3-5.2-5.2 0-2.8 2.3-5.2 5.2-5.2 2.8 0 5.1 2.4 5.1 5.2z"/>
				<path id="&lt;Path&gt;" class="s2" d="m484.5 491.2c0 2.8-2.3 5.1-5.2 5.1-2.9 0-5.2-2.3-5.2-5.1 0-2.9 2.3-5.2 5.2-5.2 2.9 0 5.2 2.3 5.2 5.2z"/>
				<path id="&lt;Path&gt;" class="s2" d="m463.2 505.3c0 2.8-2.3 5.2-5.2 5.2-2.8 0-5.2-2.4-5.2-5.2 0-2.9 2.4-5.2 5.2-5.2 2.9 0 5.2 2.3 5.2 5.2z"/>
				<path id="&lt;Path&gt;" class="s2" d="m552.5 471.8c0 2.9-2.3 5.2-5.1 5.2-2.9 0-5.2-2.3-5.2-5.2 0-2.8 2.3-5.2 5.2-5.2 2.8 0 5.1 2.4 5.1 5.2z"/>
				<path id="&lt;Path&gt;" class="s2" d="m487.5 212.3c0 2.8-2.3 5.1-5.2 5.1-2.9 0-5.2-2.3-5.2-5.1 0-2.9 2.3-5.2 5.2-5.2 2.9 0 5.2 2.3 5.2 5.2z"/>
				<path id="&lt;Path&gt;" class="s2" d="m512.7 204.1c0 2.9-2.3 5.2-5.2 5.2-2.9 0-5.2-2.3-5.2-5.2 0-2.9 2.3-5.2 5.2-5.2 2.9 0 5.2 2.3 5.2 5.2z"/>
				<path id="&lt;Path&gt;" class="s2" d="m611.6 232.4c0 2.8-2.3 5.1-5.2 5.1-2.8 0-5.1-2.3-5.1-5.1 0-2.9 2.3-5.2 5.1-5.2 2.9 0 5.2 2.3 5.2 5.2z"/>
				<path id="&lt;Path&gt;" class="s2" d="m581.3 232.5c0 2.8-2.4 5.1-5.2 5.1-2.9 0-5.2-2.3-5.2-5.1 0-2.9 2.3-5.2 5.2-5.2 2.8 0 5.2 2.3 5.2 5.2z"/>
				<path id="&lt;Path&gt;" class="s2" d="m578.9 247.9c0 2.8-2.4 5.2-5.2 5.2-2.9 0-5.2-2.4-5.2-5.2 0-2.9 2.3-5.2 5.2-5.2 2.8 0 5.2 2.3 5.2 5.2z"/>
				<path id="&lt;Path&gt;" class="s2" d="m670.9 232.4c0 2.8-2.3 5.1-5.2 5.1-2.8 0-5.2-2.3-5.2-5.1 0-2.9 2.4-5.2 5.2-5.2 2.9 0 5.2 2.3 5.2 5.2z"/>
				<path id="&lt;Path&gt;" class="s2" d="m357.5 128.8c0 2.8-2.3 5.1-5.1 5.1-2.9 0-5.2-2.3-5.2-5.1 0-2.9 2.3-5.2 5.2-5.2 2.8 0 5.1 2.3 5.1 5.2z"/>
				<path id="&lt;Path&gt;" class="s2" d="m394.7 169.3c0 2.8-2.3 5.2-5.2 5.2-2.9 0-5.2-2.4-5.2-5.2 0-2.9 2.3-5.2 5.2-5.2 2.9 0 5.2 2.3 5.2 5.2z"/>
				<path id="&lt;Path&gt;" class="s2" d="m397.9-0.5c0 2.9-2.3 5.2-5.2 5.2-2.9 0-5.2-2.3-5.2-5.2 0-2.9 2.3-5.2 5.2-5.2 2.9 0 5.2 2.3 5.2 5.2z"/>
				<path id="&lt;Path&gt;" class="s2" d="m421 14.8c0 2.9-2.3 5.2-5.1 5.2-2.9 0-5.2-2.3-5.2-5.2 0-2.8 2.3-5.1 5.2-5.1 2.8 0 5.1 2.3 5.1 5.1z"/>
				<path id="&lt;Path&gt;" class="s2" d="m430.5 6.3c0 2.8-2.3 5.1-5.2 5.1-2.9 0-5.2-2.3-5.2-5.1 0-2.9 2.3-5.2 5.2-5.2 2.9 0 5.2 2.3 5.2 5.2z"/>
				<path id="&lt;Path&gt;" class="s2" d="m133.3 200.1c0 2.9-2.3 5.2-5.2 5.2-2.9 0-5.2-2.3-5.2-5.2 0-2.9 2.3-5.2 5.2-5.2 2.9 0 5.2 2.3 5.2 5.2z"/>
				<path id="&lt;Path&gt;" class="s2" d="m207.3 313.6c0 2.9-2.3 5.2-5.2 5.2-2.9 0-5.2-2.3-5.2-5.2 0-2.9 2.3-5.2 5.2-5.2 2.9 0 5.2 2.3 5.2 5.2z"/>
				<path id="&lt;Path&gt;" class="s2" d="m207.3 330.3c0 2.9-2.3 5.2-5.2 5.2-2.9 0-5.2-2.3-5.2-5.2 0-2.8 2.3-5.2 5.2-5.2 2.9 0 5.2 2.4 5.2 5.2z"/>
				<path id="&lt;Path&gt;" class="s2" d="m30.9 359.6c0 2.9-2.4 5.2-5.2 5.2-2.9 0-5.2-2.3-5.2-5.2 0-2.9 2.3-5.2 5.2-5.2 2.8 0 5.2 2.3 5.2 5.2z"/>
				<path id="&lt;Path&gt;" class="s2" d="m10.5 373.6c0 2.9-2.3 5.2-5.1 5.2-2.9 0-5.2-2.3-5.2-5.2 0-2.9 2.3-5.2 5.2-5.2 2.8 0 5.1 2.3 5.1 5.2z"/>
				<path id="&lt;Path&gt;" class="s2" d="m82.1 370.7c0 2.9-2.3 5.2-5.2 5.2-2.9 0-5.2-2.3-5.2-5.2 0-2.9 2.3-5.2 5.2-5.2 2.9 0 5.2 2.3 5.2 5.2z"/>
				<path id="&lt;Path&gt;" class="s2" d="m98.1 368.6c0 2.9-2.3 5.2-5.2 5.2-2.8 0-5.1-2.3-5.1-5.2 0-2.9 2.3-5.2 5.1-5.2 2.9 0 5.2 2.3 5.2 5.2z"/>
				<path id="&lt;Path&gt;" class="s2" d="m98.1 384.6c0 2.9-2.3 5.2-5.2 5.2-2.8 0-5.1-2.3-5.1-5.2 0-2.9 2.3-5.2 5.1-5.2 2.9 0 5.2 2.3 5.2 5.2z"/>
				<path id="&lt;Path&gt;" class="s2" d="m101.2 398.7c0 2.8-2.3 5.2-5.2 5.2-2.9 0-5.2-2.4-5.2-5.2 0-2.9 2.3-5.2 5.2-5.2 2.9 0 5.2 2.3 5.2 5.2z"/>
				<path id="&lt;Path&gt;" class="s2" d="m90.5 407.3c0 2.9-2.3 5.2-5.2 5.2-2.9 0-5.2-2.3-5.2-5.2 0-2.8 2.3-5.2 5.2-5.2 2.9 0 5.2 2.4 5.2 5.2z"/>
				<path id="&lt;Path&gt;" class="s2" d="m143.4 378.8c0 2.8-2.3 5.2-5.2 5.2-2.9 0-5.2-2.4-5.2-5.2 0-2.9 2.3-5.2 5.2-5.2 2.9 0 5.2 2.3 5.2 5.2z"/>
				<path id="&lt;Path&gt;" class="s2" d="m155.4 423.1c0 2.9-2.3 5.2-5.2 5.2-2.8 0-5.2-2.3-5.2-5.2 0-2.9 2.4-5.2 5.2-5.2 2.9 0 5.2 2.3 5.2 5.2z"/>
				<path id="&lt;Path&gt;" class="s2" d="m173.5 406.4c0 2.9-2.3 5.2-5.1 5.2-2.9 0-5.2-2.3-5.2-5.2 0-2.9 2.3-5.2 5.2-5.2 2.8 0 5.1 2.3 5.1 5.2z"/>
				<path id="&lt;Path&gt;" class="s2" d="m194.5 396.8c0 2.9-2.3 5.2-5.1 5.2-2.9 0-5.2-2.3-5.2-5.2 0-2.8 2.3-5.2 5.2-5.2 2.8 0 5.1 2.4 5.1 5.2z"/>
				<path id="&lt;Path&gt;" class="s2" d="m275 417.1c0 2.9-2.3 5.2-5.1 5.2-2.9 0-5.2-2.3-5.2-5.2 0-2.9 2.3-5.2 5.2-5.2 2.8 0 5.1 2.3 5.1 5.2z"/>
				<path id="&lt;Path&gt;" class="s2" d="m280.2 438c0 2.9-2.3 5.2-5.2 5.2-2.8 0-5.1-2.3-5.1-5.2 0-2.9 2.3-5.2 5.1-5.2 2.9 0 5.2 2.3 5.2 5.2z"/>
				<path id="&lt;Path&gt;" class="s2" d="m349.6 479c0 2.8-2.3 5.1-5.2 5.1-2.8 0-5.1-2.3-5.1-5.1 0-2.9 2.3-5.2 5.1-5.2 2.9 0 5.2 2.3 5.2 5.2z"/>
				<path id="&lt;Path&gt;" class="s2" d="m336.9 493.9c0 2.9-2.4 5.2-5.2 5.2-2.9 0-5.2-2.3-5.2-5.2 0-2.9 2.3-5.2 5.2-5.2 2.8 0 5.2 2.3 5.2 5.2z"/>
				<path id="&lt;Path&gt;" class="s2" d="m393.8 524.4c0 2.9-2.3 5.2-5.2 5.2-2.8 0-5.2-2.3-5.2-5.2 0-2.9 2.4-5.2 5.2-5.2 2.9 0 5.2 2.3 5.2 5.2z"/>
				<path id="&lt;Path&gt;" class="s2" d="m417.4 522.8c0 2.8-2.4 5.2-5.2 5.2-2.9 0-5.2-2.4-5.2-5.2 0-2.9 2.3-5.2 5.2-5.2 2.8 0 5.2 2.3 5.2 5.2z"/>
				<path id="&lt;Path&gt;" class="s2" d="m428.8 510.5c0 2.8-2.3 5.1-5.2 5.1-2.8 0-5.2-2.3-5.2-5.1 0-2.9 2.4-5.2 5.2-5.2 2.9 0 5.2 2.3 5.2 5.2z"/>
				<path id="&lt;Path&gt;" class="s2" d="m444.7 520.2c0 2.9-2.3 5.2-5.2 5.2-2.8 0-5.1-2.3-5.1-5.2 0-2.9 2.3-5.2 5.1-5.2 2.9 0 5.2 2.3 5.2 5.2z"/>
				<path id="&lt;Path&gt;" class="s2" d="m428 450.4c0 2.9-2.3 5.2-5.1 5.2-2.9 0-5.2-2.3-5.2-5.2 0-2.8 2.3-5.2 5.2-5.2 2.8 0 5.1 2.4 5.1 5.2z"/>
				<path id="&lt;Path&gt;" class="s2" d="m454.3 447.6c0 2.9-2.3 5.2-5.2 5.2-2.9 0-5.2-2.3-5.2-5.2 0-2.9 2.3-5.2 5.2-5.2 2.9 0 5.2 2.3 5.2 5.2z"/>
				<path id="&lt;Path&gt;" class="s2" d="m322.6 522.8c0 2.8-2.3 5.2-5.2 5.2-2.9 0-5.2-2.4-5.2-5.2 0-2.9 2.3-5.2 5.2-5.2 2.9 0 5.2 2.3 5.2 5.2z"/>
				<path id="&lt;Path&gt;" class="s2" d="m390.6 479c0 2.8-2.3 5.1-5.2 5.1-2.9 0-5.2-2.3-5.2-5.1 0-2.9 2.3-5.2 5.2-5.2 2.9 0 5.2 2.3 5.2 5.2z"/>
				<path id="&lt;Path&gt;" class="s2" d="m296.3 429c0 2.9-2.4 5.2-5.2 5.2-2.9 0-5.2-2.3-5.2-5.2 0-2.8 2.3-5.2 5.2-5.2 2.8 0 5.2 2.4 5.2 5.2z"/>
				<path id="&lt;Path&gt;" class="s2" d="m266.4 453.8c0 2.8-2.4 5.1-5.2 5.1-2.9 0-5.2-2.3-5.2-5.1 0-2.9 2.3-5.2 5.2-5.2 2.8 0 5.2 2.3 5.2 5.2z"/>
				<path id="&lt;Path&gt;" class="s2" d="m253.4 464.6c0 2.9-2.4 5.2-5.2 5.2-2.9 0-5.2-2.3-5.2-5.2 0-2.9 2.3-5.2 5.2-5.2 2.8 0 5.2 2.3 5.2 5.2z"/>
				<path id="&lt;Path&gt;" class="s2" d="m67.9 436.1c0 2.9-2.4 5.2-5.2 5.2-2.9 0-5.2-2.3-5.2-5.2 0-2.9 2.3-5.2 5.2-5.2 2.8 0 5.2 2.3 5.2 5.2z"/>
				<path id="&lt;Path&gt;" class="s2" d="m37.7 470.1c0 2.9-2.3 5.2-5.2 5.2-2.9 0-5.2-2.3-5.2-5.2 0-2.9 2.3-5.2 5.2-5.2 2.9 0 5.2 2.3 5.2 5.2z"/>
				<path id="&lt;Path&gt;" class="s2" d="m100.3 495.6c0 2.9-2.3 5.2-5.2 5.2-2.8 0-5.2-2.3-5.2-5.2 0-2.9 2.4-5.2 5.2-5.2 2.9 0 5.2 2.3 5.2 5.2z"/>
				<path id="&lt;Path&gt;" class="s2" d="m102.2 523.6c0 2.9-2.3 5.2-5.2 5.2-2.9 0-5.2-2.3-5.2-5.2 0-2.9 2.3-5.2 5.2-5.2 2.9 0 5.2 2.3 5.2 5.2z"/>
				<path id="&lt;Path&gt;" class="s2" d="m126 510.1c0 2.9-2.3 5.2-5.1 5.2-2.9 0-5.2-2.3-5.2-5.2 0-2.9 2.3-5.2 5.2-5.2 2.8 0 5.1 2.3 5.1 5.2z"/>
				<path id="&lt;Path&gt;" class="s2" d="m5.5 499.6c0 2.9-2.3 5.2-5.1 5.2-2.9 0-5.2-2.3-5.2-5.2 0-2.9 2.3-5.2 5.2-5.2 2.8 0 5.1 2.3 5.1 5.2z"/>
				<path id="&lt;Path&gt;" class="s2" d="m5.7 121.1c0 2.9-2.4 5.2-5.2 5.2-2.9 0-5.2-2.3-5.2-5.2 0-2.9 2.3-5.2 5.2-5.2 2.8 0 5.2 2.3 5.2 5.2z"/>
				<path id="&lt;Path&gt;" class="s2" d="m25.7 19.1c0 2.9-2.4 5.2-5.2 5.2-2.9 0-5.2-2.3-5.2-5.2 0-2.9 2.3-5.2 5.2-5.2 2.8 0 5.2 2.3 5.2 5.2z"/>
				<path id="&lt;Path&gt;" class="s2" d="m102.3 44.1c0 2.9-2.3 5.2-5.2 5.2-2.8 0-5.2-2.3-5.2-5.2 0-2.9 2.4-5.2 5.2-5.2 2.9 0 5.2 2.3 5.2 5.2z"/>
				<path id="&lt;Path&gt;" class="s2" d="m286.5 227.6c0 2.9-2.3 5.2-5.1 5.2-2.9 0-5.2-2.3-5.2-5.2 0-2.9 2.3-5.2 5.2-5.2 2.8 0 5.1 2.3 5.1 5.2z"/>
				<path id="&lt;Path&gt;" class="s2" d="m281.4 189.3c0 2.9-2.4 5.2-5.2 5.2-2.9 0-5.2-2.3-5.2-5.2 0-2.8 2.3-5.2 5.2-5.2 2.8 0 5.2 2.4 5.2 5.2z"/>
				<path id="&lt;Path&gt;" class="s2" d="m358.6 205.3c0 2.8-2.3 5.2-5.2 5.2-2.8 0-5.2-2.4-5.2-5.2 0-2.9 2.4-5.2 5.2-5.2 2.9 0 5.2 2.3 5.2 5.2z"/>
				<path id="&lt;Path&gt;" class="s4" d="m300 279.1c0 2.9-2.3 5.2-5.1 5.2-2.9 0-5.2-2.3-5.2-5.2 0-2.9 2.3-5.2 5.2-5.2 2.8 0 5.1 2.3 5.1 5.2z"/>
				<path id="&lt;Path&gt;" class="s4" d="m326.1 270.8c0 2.9-2.3 5.2-5.1 5.2-2.9 0-5.2-2.3-5.2-5.2 0-2.8 2.3-5.2 5.2-5.2 2.8 0 5.1 2.4 5.1 5.2z"/>
				<path id="&lt;Path&gt;" class="s4" d="m327.5 254.6c0 2.9-2.3 5.2-5.2 5.2-2.9 0-5.2-2.3-5.2-5.2 0-2.9 2.3-5.2 5.2-5.2 2.9 0 5.2 2.3 5.2 5.2z"/>
				<path id="&lt;Path&gt;" class="s4" d="m271 272.8c0 2.8-2.3 5.2-5.1 5.2-2.9 0-5.2-2.4-5.2-5.2 0-2.9 2.3-5.2 5.2-5.2 2.8 0 5.1 2.3 5.1 5.2z"/>
				<path id="&lt;Path&gt;" class="s4" d="m141.4 311.2c0 2.9-2.3 5.2-5.2 5.2-2.9 0-5.2-2.3-5.2-5.2 0-2.9 2.3-5.2 5.2-5.2 2.9 0 5.2 2.3 5.2 5.2z"/>
				<path id="&lt;Path&gt;" class="s4" d="m16 511.1c0 2.9-2.3 5.2-5.1 5.2-2.9 0-5.2-2.3-5.2-5.2 0-2.9 2.3-5.2 5.2-5.2 2.8 0 5.1 2.3 5.1 5.2z"/>
				<path id="&lt;Path&gt;" class="s4" d="m92 508.6c0 2.9-2.3 5.2-5.1 5.2-2.9 0-5.2-2.3-5.2-5.2 0-2.9 2.3-5.2 5.2-5.2 2.8 0 5.1 2.3 5.1 5.2z"/>
				<path id="&lt;Path&gt;" class="s4" d="m145 518.6c0 2.9-2.3 5.2-5.1 5.2-2.9 0-5.2-2.3-5.2-5.2 0-2.9 2.3-5.2 5.2-5.2 2.8 0 5.1 2.3 5.1 5.2z"/>
				<path id="&lt;Path&gt;" class="s4" d="m241.3 432.6c0 2.9-2.3 5.2-5.2 5.2-2.9 0-5.2-2.3-5.2-5.2 0-2.9 2.3-5.2 5.2-5.2 2.9 0 5.2 2.3 5.2 5.2z"/>
				<path id="&lt;Path&gt;" class="s4" d="m306 521.2c0 2.9-2.4 5.2-5.2 5.2-2.9 0-5.2-2.3-5.2-5.2 0-2.9 2.3-5.2 5.2-5.2 2.8 0 5.2 2.3 5.2 5.2z"/>
				<path id="&lt;Path&gt;" class="s4" d="m209.7 449.3c0 2.8-2.4 5.2-5.2 5.2-2.9 0-5.2-2.4-5.2-5.2 0-2.9 2.3-5.2 5.2-5.2 2.8 0 5.2 2.3 5.2 5.2z"/>
				<path id="&lt;Path&gt;" class="s4" d="m230.9 449.3c0 2.8-2.3 5.2-5.2 5.2-2.8 0-5.2-2.4-5.2-5.2 0-2.9 2.4-5.2 5.2-5.2 2.9 0 5.2 2.3 5.2 5.2z"/>
				<path id="&lt;Path&gt;" class="s4" d="m236.1 464.6c0 2.9-2.3 5.2-5.2 5.2-2.8 0-5.2-2.3-5.2-5.2 0-2.9 2.4-5.2 5.2-5.2 2.9 0 5.2 2.3 5.2 5.2z"/>
				<path id="&lt;Path&gt;" class="s4" d="m255 403.9c0 2.8-2.3 5.2-5.1 5.2-2.9 0-5.2-2.4-5.2-5.2 0-2.9 2.3-5.2 5.2-5.2 2.8 0 5.1 2.3 5.1 5.2z"/>
				<path id="&lt;Path&gt;" class="s4" d="m240 499.1c0 2.9-2.3 5.2-5.1 5.2-2.9 0-5.2-2.3-5.2-5.2 0-2.9 2.3-5.2 5.2-5.2 2.8 0 5.1 2.3 5.1 5.2z"/>
				<path id="&lt;Path&gt;" class="s4" d="m252.9 499.1c0 2.9-2.3 5.2-5.2 5.2-2.9 0-5.2-2.3-5.2-5.2 0-2.9 2.3-5.2 5.2-5.2 2.9 0 5.2 2.3 5.2 5.2z"/>
				<path id="&lt;Path&gt;" class="s4" d="m265.7 499.1c0 2.9-2.3 5.2-5.2 5.2-2.8 0-5.2-2.3-5.2-5.2 0-2.9 2.4-5.2 5.2-5.2 2.9 0 5.2 2.3 5.2 5.2z"/>
				<path id="&lt;Path&gt;" class="s4" d="m278.6 499.1c0 2.9-2.4 5.2-5.2 5.2-2.9 0-5.2-2.3-5.2-5.2 0-2.9 2.3-5.2 5.2-5.2 2.8 0 5.2 2.3 5.2 5.2z"/>
				<path id="&lt;Path&gt;" class="s4" d="m16 273.6c0 2.9-2.3 5.2-5.1 5.2-2.9 0-5.2-2.3-5.2-5.2 0-2.9 2.3-5.2 5.2-5.2 2.8 0 5.1 2.3 5.1 5.2z"/>
				<path id="&lt;Path&gt;" class="s4" d="m40 219.8c0 2.9-2.3 5.2-5.2 5.2-2.9 0-5.2-2.3-5.2-5.2 0-2.8 2.3-5.2 5.2-5.2 2.9 0 5.2 2.4 5.2 5.2z"/>
				<path id="&lt;Path&gt;" class="s4" d="m95.1 168.1c0 2.9-2.3 5.2-5.2 5.2-2.8 0-5.1-2.3-5.1-5.2 0-2.9 2.3-5.2 5.1-5.2 2.9 0 5.2 2.3 5.2 5.2z"/>
				<path id="&lt;Path&gt;" class="s4" d="m9.9 91.1c0 2.9-2.4 5.2-5.2 5.2-2.9 0-5.2-2.3-5.2-5.2 0-2.9 2.3-5.2 5.2-5.2 2.8 0 5.2 2.3 5.2 5.2z"/>
				<path id="&lt;Path&gt;" class="s4" d="m166 163.1c0 2.9-2.3 5.2-5.1 5.2-2.9 0-5.2-2.3-5.2-5.2 0-2.9 2.3-5.2 5.2-5.2 2.8 0 5.1 2.3 5.1 5.2z"/>
				<path id="&lt;Path&gt;" class="s4" d="m259.9 175.4c0 2.9-2.3 5.2-5.2 5.2-2.9 0-5.2-2.3-5.2-5.2 0-2.8 2.3-5.2 5.2-5.2 2.9 0 5.2 2.4 5.2 5.2z"/>
				<path id="&lt;Path&gt;" class="s4" d="m157.5 128.8c0 2.8-2.3 5.1-5.1 5.1-2.9 0-5.2-2.3-5.2-5.1 0-2.9 2.3-5.2 5.2-5.2 2.8 0 5.1 2.3 5.1 5.2z"/>
				<path id="&lt;Path&gt;" class="s4" d="m169.5 115.9c0 2.9-2.3 5.2-5.1 5.2-2.9 0-5.2-2.3-5.2-5.2 0-2.9 2.3-5.2 5.2-5.2 2.8 0 5.1 2.3 5.1 5.2z"/>
				<path id="&lt;Path&gt;" class="s4" d="m273.4 112.4c0 2.9-2.4 5.2-5.2 5.2-2.9 0-5.2-2.3-5.2-5.2 0-2.8 2.3-5.2 5.2-5.2 2.8 0 5.2 2.4 5.2 5.2z"/>
				<path id="&lt;Path&gt;" class="s4" d="m240.4 78.1c0 2.9-2.3 5.2-5.2 5.2-2.9 0-5.2-2.3-5.2-5.2 0-2.9 2.3-5.2 5.2-5.2 2.9 0 5.2 2.3 5.2 5.2z"/>
				<path id="&lt;Path&gt;" class="s4" d="m268.2 71.5c0 2.9-2.4 5.2-5.2 5.2-2.9 0-5.2-2.3-5.2-5.2 0-2.8 2.3-5.1 5.2-5.1 2.8 0 5.2 2.3 5.2 5.1z"/>
				<path id="&lt;Path&gt;" class="s4" d="m295.1 78.1c0 2.9-2.3 5.2-5.2 5.2-2.8 0-5.2-2.3-5.2-5.2 0-2.9 2.4-5.2 5.2-5.2 2.9 0 5.2 2.3 5.2 5.2z"/>
				<path id="&lt;Path&gt;" class="s4" d="m325.5 44.1c0 2.9-2.3 5.2-5.2 5.2-2.9 0-5.2-2.3-5.2-5.2 0-2.9 2.3-5.2 5.2-5.2 2.9 0 5.2 2.3 5.2 5.2z"/>
				<path id="&lt;Path&gt;" class="s4" d="m294.9 128.8c0 2.8-2.4 5.1-5.2 5.1-2.9 0-5.2-2.3-5.2-5.1 0-2.9 2.3-5.2 5.2-5.2 2.8 0 5.2 2.3 5.2 5.2z"/>
				<path id="&lt;Path&gt;" class="s4" d="m317.1 133.9c0 2.9-2.3 5.2-5.2 5.2-2.8 0-5.2-2.3-5.2-5.2 0-2.8 2.4-5.1 5.2-5.1 2.9 0 5.2 2.3 5.2 5.1z"/>
				<path id="&lt;Path&gt;" class="s4" d="m337.9 85.2c0 2.8-2.4 5.2-5.2 5.2-2.9 0-5.2-2.4-5.2-5.2 0-2.9 2.3-5.2 5.2-5.2 2.8 0 5.2 2.3 5.2 5.2z"/>
				<path id="&lt;Path&gt;" class="s4" d="m348.2 112.4c0 2.9-2.3 5.2-5.2 5.2-2.8 0-5.1-2.3-5.1-5.2 0-2.8 2.3-5.2 5.1-5.2 2.9 0 5.2 2.4 5.2 5.2z"/>
				<path id="&lt;Path&gt;" class="s4" d="m386.7 183.6c0 2.9-2.3 5.2-5.2 5.2-2.8 0-5.1-2.3-5.1-5.2 0-2.9 2.3-5.2 5.1-5.2 2.9 0 5.2 2.3 5.2 5.2z"/>
				<path id="&lt;Path&gt;" class="s4" d="m417.1 200.1c0 2.9-2.3 5.2-5.2 5.2-2.9 0-5.2-2.3-5.2-5.2 0-2.9 2.3-5.2 5.2-5.2 2.9 0 5.2 2.3 5.2 5.2z"/>
				<path id="&lt;Path&gt;" class="s4" d="m423.6 254.6c0 2.9-2.3 5.2-5.2 5.2-2.8 0-5.2-2.3-5.2-5.2 0-2.9 2.4-5.2 5.2-5.2 2.9 0 5.2 2.3 5.2 5.2z"/>
				<path id="&lt;Path&gt;" class="s4" d="m423.6 292.1c0 2.9-2.3 5.2-5.2 5.2-2.8 0-5.2-2.3-5.2-5.2 0-2.9 2.4-5.2 5.2-5.2 2.9 0 5.2 2.3 5.2 5.2z"/>
				<path id="&lt;Path&gt;" class="s4" d="m362.7 314.6c0 2.9-2.4 5.2-5.2 5.2-2.9 0-5.2-2.3-5.2-5.2 0-2.8 2.3-5.2 5.2-5.2 2.8 0 5.2 2.4 5.2 5.2z"/>
				<path id="&lt;Path&gt;" class="s4" d="m381.8 427.4c0 2.9-2.3 5.2-5.2 5.2-2.9 0-5.2-2.3-5.2-5.2 0-2.9 2.3-5.2 5.2-5.2 2.9 0 5.2 2.3 5.2 5.2z"/>
				<path id="&lt;Path&gt;" class="s4" d="m464.7 458.9c0 2.9-2.4 5.2-5.2 5.2-2.9 0-5.2-2.3-5.2-5.2 0-2.8 2.3-5.1 5.2-5.1 2.8 0 5.2 2.3 5.2 5.1z"/>
				<path id="&lt;Path&gt;" class="s4" d="m504.2 495.3c0 2.9-2.3 5.2-5.2 5.2-2.8 0-5.2-2.3-5.2-5.2 0-2.8 2.4-5.2 5.2-5.2 2.9 0 5.2 2.4 5.2 5.2z"/>
				<path id="&lt;Path&gt;" class="s4" d="m437.3 161.3c0 2.8-2.3 5.2-5.1 5.2-2.9 0-5.2-2.4-5.2-5.2 0-2.9 2.3-5.2 5.2-5.2 2.8 0 5.1 2.3 5.1 5.2z"/>
				<path id="&lt;Path&gt;" class="s4" d="m570.3 125c0 2.8-2.3 5.2-5.2 5.2-2.9 0-5.2-2.4-5.2-5.2 0-2.9 2.3-5.2 5.2-5.2 2.9 0 5.2 2.3 5.2 5.2z"/>
				<path id="&lt;Path&gt;" class="s4" d="m607 14.8c0 2.9-2.3 5.2-5.1 5.2-2.9 0-5.2-2.3-5.2-5.2 0-2.8 2.3-5.1 5.2-5.1 2.8 0 5.1 2.3 5.1 5.1z"/>
				<path id="&lt;Path&gt;" class="s4" d="m704.3 73.3c0 2.9-2.3 5.2-5.2 5.2-2.8 0-5.2-2.3-5.2-5.2 0-2.8 2.4-5.2 5.2-5.2 2.9 0 5.2 2.4 5.2 5.2z"/>
				<path id="&lt;Path&gt;" class="s4" d="m631.5 118.9c0 2.9-2.3 5.2-5.1 5.2-2.9 0-5.2-2.3-5.2-5.2 0-2.8 2.3-5.2 5.2-5.2 2.8 0 5.1 2.4 5.1 5.2z"/>
				<path id="&lt;Path&gt;" class="s4" d="m613.8 127.8c0 2.9-2.3 5.2-5.2 5.2-2.9 0-5.2-2.3-5.2-5.2 0-2.8 2.3-5.2 5.2-5.2 2.9 0 5.2 2.4 5.2 5.2z"/>
				<path id="&lt;Path&gt;" class="s4" d="m618.2 140.5c0 2.9-2.3 5.2-5.1 5.2-2.9 0-5.2-2.3-5.2-5.2 0-2.8 2.3-5.2 5.2-5.2 2.8 0 5.1 2.4 5.1 5.2z"/>
				<path id="&lt;Path&gt;" class="s4" d="m683 219.6c0 2.9-2.3 5.2-5.2 5.2-2.9 0-5.2-2.3-5.2-5.2 0-2.8 2.3-5.1 5.2-5.1 2.9 0 5.2 2.3 5.2 5.1z"/>
				<path id="&lt;Path&gt;" class="s4" d="m722.4 234.1c0 2.9-2.3 5.2-5.2 5.2-2.8 0-5.1-2.3-5.1-5.2 0-2.9 2.3-5.2 5.1-5.2 2.9 0 5.2 2.3 5.2 5.2z"/>
				<path id="&lt;Path&gt;" class="s4" d="m749.6 296.1c0 2.9-2.3 5.2-5.2 5.2-2.8 0-5.1-2.3-5.1-5.2 0-2.8 2.3-5.2 5.1-5.2 2.9 0 5.2 2.4 5.2 5.2z"/>
				<path id="&lt;Path&gt;" class="s4" d="m722.4 258.2c0 2.9-2.3 5.2-5.2 5.2-2.8 0-5.1-2.3-5.1-5.2 0-2.8 2.3-5.1 5.1-5.1 2.9 0 5.2 2.3 5.2 5.1z"/>
				<path id="&lt;Path&gt;" class="s4" d="m520 256.1c0 2.9-2.3 5.2-5.1 5.2-2.9 0-5.2-2.3-5.2-5.2 0-2.9 2.3-5.2 5.2-5.2 2.8 0 5.1 2.3 5.1 5.2z"/>
				<path id="&lt;Path&gt;" class="s4" d="m585 434.6c0 2.9-2.3 5.2-5.2 5.2-2.9 0-5.2-2.3-5.2-5.2 0-2.9 2.3-5.2 5.2-5.2 2.9 0 5.2 2.3 5.2 5.2z"/>
				<path id="&lt;Path&gt;" class="s4" d="m632.5 458.5c0 2.8-2.3 5.1-5.1 5.1-2.9 0-5.2-2.3-5.2-5.1 0-2.9 2.3-5.2 5.2-5.2 2.8 0 5.1 2.3 5.1 5.2z"/>
				<path id="&lt;Path&gt;" class="s4" d="m660.3 505.3c0 2.8-2.3 5.2-5.1 5.2-2.9 0-5.2-2.4-5.2-5.2 0-2.9 2.3-5.2 5.2-5.2 2.8 0 5.1 2.3 5.1 5.2z"/>
				<path id="&lt;Path&gt;" class="s4" d="m715.3 447.9c0 2.8-2.4 5.1-5.2 5.1-2.9 0-5.2-2.3-5.2-5.1 0-2.9 2.3-5.2 5.2-5.2 2.8 0 5.2 2.3 5.2 5.2z"/>
				<path id="&lt;Path&gt;" class="s4" d="m707.3 378.5c0 2.8-2.4 5.1-5.2 5.1-2.9 0-5.2-2.3-5.2-5.1 0-2.9 2.3-5.2 5.2-5.2 2.8 0 5.2 2.3 5.2 5.2z"/>
				<path id="&lt;Path&gt;" class="s4" d="m651.4 517.6c0 2.9-2.3 5.2-5.2 5.2-2.8 0-5.1-2.3-5.1-5.2 0-2.9 2.3-5.2 5.1-5.2 2.9 0 5.2 2.3 5.2 5.2z"/>
				<path id="&lt;Path&gt;" class="s4" d="m625 471.8c0 2.9-2.3 5.2-5.2 5.2-2.9 0-5.2-2.3-5.2-5.2 0-2.8 2.3-5.2 5.2-5.2 2.9 0 5.2 2.4 5.2 5.2z"/>
				<path id="&lt;Path&gt;" class="s4" d="m546.3 352.1c0 2.8-2.3 5.1-5.2 5.1-2.9 0-5.2-2.3-5.2-5.1 0-2.9 2.3-5.2 5.2-5.2 2.9 0 5.2 2.3 5.2 5.2z"/>
				<path id="&lt;Path&gt;" class="s4" d="m557.7 366.3c0 2.8-2.3 5.1-5.2 5.1-2.8 0-5.1-2.3-5.1-5.1 0-2.9 2.3-5.2 5.1-5.2 2.9 0 5.2 2.3 5.2 5.2z"/>
				<path id="&lt;Path&gt;" class="s4" d="m655.2 352.1c0 2.8-2.4 5.1-5.2 5.1-2.9 0-5.2-2.3-5.2-5.1 0-2.9 2.3-5.2 5.2-5.2 2.8 0 5.2 2.3 5.2 5.2z"/>
				<path id="&lt;Path&gt;" class="s4" d="m637.9 258.2c0 2.9-2.4 5.2-5.2 5.2-2.9 0-5.2-2.3-5.2-5.2 0-2.8 2.3-5.1 5.2-5.1 2.8 0 5.2 2.3 5.2 5.1z"/>
				<path id="&lt;Path&gt;" class="s4" d="m646.2 244.7c0 2.9-2.3 5.2-5.1 5.2-2.9 0-5.2-2.3-5.2-5.2 0-2.9 2.3-5.2 5.2-5.2 2.8 0 5.1 2.3 5.1 5.2z"/>
				<path id="&lt;Path&gt;" class="s4" d="m478.8 279.9c0 2.9-2.3 5.2-5.2 5.2-2.8 0-5.2-2.3-5.2-5.2 0-2.9 2.4-5.2 5.2-5.2 2.9 0 5.2 2.3 5.2 5.2z"/>
				<path id="&lt;Path&gt;" class="s4" d="m495.9 319.8c0 2.9-2.3 5.2-5.2 5.2-2.9 0-5.2-2.3-5.2-5.2 0-2.9 2.3-5.2 5.2-5.2 2.9 0 5.2 2.3 5.2 5.2z"/>
				<path id="&lt;Path&gt;" class="s4" d="m612.8 109.3c0 2.9-2.3 5.2-5.1 5.2-2.9 0-5.2-2.3-5.2-5.2 0-2.8 2.3-5.2 5.2-5.2 2.8 0 5.1 2.4 5.1 5.2z"/>
				<path id="&lt;Path&gt;" class="s4" d="m706 53.8c0 2.9-2.3 5.2-5.1 5.2-2.9 0-5.2-2.3-5.2-5.2 0-2.8 2.3-5.2 5.2-5.2 2.8 0 5.1 2.4 5.1 5.2z"/>
				<path id="&lt;Path&gt;" class="s4" d="m378.1 95.6c0 2.8-2.3 5.1-5.2 5.1-2.8 0-5.1-2.3-5.1-5.1 0-2.9 2.3-5.2 5.1-5.2 2.9 0 5.2 2.3 5.2 5.2z"/>
				<path id="&lt;Path&gt;" class="s4" d="m388.5 11.4c0 2.9-2.3 5.2-5.2 5.2-2.8 0-5.2-2.3-5.2-5.2 0-2.8 2.4-5.1 5.2-5.1 2.9 0 5.2 2.3 5.2 5.1z"/>
				<path id="&lt;Path&gt;" class="s4" d="m469.1-0.5c0 2.9-2.3 5.2-5.2 5.2-2.8 0-5.2-2.3-5.2-5.2 0-2.9 2.4-5.2 5.2-5.2 2.9 0 5.2 2.3 5.2 5.2z"/>
				<path id="&lt;Path&gt;" class="s4" d="m343 204.1c0 2.9-2.3 5.2-5.1 5.2-2.9 0-5.2-2.3-5.2-5.2 0-2.9 2.3-5.2 5.2-5.2 2.8 0 5.1 2.3 5.1 5.2z"/>
				<path id="&lt;Path&gt;" class="s4" d="m378.1 210.5c0 2.8-2.3 5.1-5.2 5.1-2.8 0-5.1-2.3-5.1-5.1 0-2.9 2.3-5.2 5.1-5.2 2.9 0 5.2 2.3 5.2 5.2z"/>
				<path id="&lt;Path&gt;" class="s4" d="m393.7 205.3c0 2.8-2.3 5.2-5.2 5.2-2.9 0-5.2-2.4-5.2-5.2 0-2.9 2.3-5.2 5.2-5.2 2.9 0 5.2 2.3 5.2 5.2z"/>
				<path id="&lt;Path&gt;" class="s4" d="m286.5 160.1c0 2.9-2.3 5.2-5.1 5.2-2.9 0-5.2-2.3-5.2-5.2 0-2.9 2.3-5.2 5.2-5.2 2.8 0 5.1 2.3 5.1 5.2z"/>
				<path id="&lt;Path&gt;" class="s4" d="m145.1 44.1c0 2.9-2.4 5.2-5.2 5.2-2.9 0-5.2-2.3-5.2-5.2 0-2.9 2.3-5.2 5.2-5.2 2.8 0 5.2 2.3 5.2 5.2z"/>
				<path id="&lt;Path&gt;" class="s4" d="m218.5 204.1c0 2.9-2.3 5.2-5.1 5.2-2.9 0-5.2-2.3-5.2-5.2 0-2.9 2.3-5.2 5.2-5.2 2.8 0 5.1 2.3 5.1 5.2z"/>
				<path id="&lt;Path&gt;" class="s4" d="m305.2 202.1c0 2.9-2.3 5.2-5.2 5.2-2.8 0-5.1-2.3-5.1-5.2 0-2.9 2.3-5.2 5.1-5.2 2.9 0 5.2 2.3 5.2 5.2z"/>
				<path id="&lt;Path&gt;" class="s4" d="m253.7 228.6c0 2.9-2.3 5.2-5.2 5.2-2.8 0-5.1-2.3-5.1-5.2 0-2.9 2.3-5.2 5.1-5.2 2.9 0 5.2 2.3 5.2 5.2z"/>
				<path id="&lt;Path&gt;" class="s4" d="m303.1 236.6c0 2.9-2.3 5.2-5.1 5.2-2.9 0-5.2-2.3-5.2-5.2 0-2.9 2.3-5.2 5.2-5.2 2.8 0 5.1 2.3 5.1 5.2z"/>
				<path id="&lt;Path&gt;" class="s2" d="m152.4 126.3v-8.9l-6.8-7.3h-66.5l-65.7-66h-21"/>
				<path id="&lt;Path&gt;" class="s2" d="m164.4 115.9l-12-11.5h-70.4l-61.5-60.3v-20.3"/>
				<path id="&lt;Path&gt;" class="s2" d="m265.4 112.4h-10.7l-29.7-29.3h-51l-9.6-9.7h-67l-44.4-43.6v-34.5"/>
				<path id="&lt;Path&gt;" class="s2" d="m230 78.1h-52l-8.6-8.3h-65.5l-43.5-42.7v-31.8"/>
				<path id="&lt;Path&gt;" class="s2" d="m193.7 115.9h24.8l27.9 28.5h23"/>
				<path id="&lt;Path&gt;" class="s5" d="m256 130.2l-30-29.1h-54.6l-13.9-13h-72.7l-50-50v-32.7"/>
				<path id="&lt;Path&gt;" class="s5" d="m249.9 292.1l-19.9 19.1v39.6l-16.6 17.6h-36.7l-88.9 87.2h-34.8"/>
				<path id="&lt;Path&gt;" class="s6" d="m217.2 150.8c0 11.1-9 20-20 20-11.1 0-20.1-8.9-20.1-20 0-11.1 9-20 20.1-20 11 0 20 8.9 20 20z"/>
				<path id="&lt;Path&gt;" class="s6" d="m210.3 150.8c0 7.3-5.9 13.2-13.1 13.2-7.3 0-13.2-5.9-13.2-13.2 0-7.3 5.9-13.1 13.2-13.1 7.2 0 13.1 5.8 13.1 13.1z"/>
				<path id="&lt;Path&gt;" class="s6" d="m201.4 150.8c0 2.3-1.9 4.2-4.2 4.2-2.4 0-4.2-1.9-4.2-4.2 0-2.3 1.8-4.2 4.2-4.2 2.3 0 4.2 1.9 4.2 4.2z"/>
				<path id="&lt;Path&gt;" class="s6" d="m684.7 135.3c0 11.1-9 20.1-20 20.1-11.1 0-20.1-9-20.1-20.1 0-11 9-20 20.1-20 11 0 20 9 20 20z"/>
				<path id="&lt;Path&gt;" class="s6" d="m677.8 135.3c0 7.3-5.9 13.2-13.1 13.2-7.3 0-13.2-5.9-13.2-13.2 0-7.2 5.9-13.1 13.2-13.1 7.2 0 13.1 5.9 13.1 13.1z"/>
				<path id="&lt;Path&gt;" class="s6" d="m668.9 135.3c0 2.4-1.9 4.3-4.2 4.3-2.4 0-4.3-1.9-4.3-4.3 0-2.3 1.9-4.2 4.3-4.2 2.3 0 4.2 1.9 4.2 4.2z"/>
				<path id="&lt;Path&gt;" class="s7" d="m115.7 22.8h-22.8v-22.7h22.8z"/>
				<path id="&lt;Path&gt;" class="s7" d="m617.8 276.7h-22.7v-22.7h22.7z"/>
				<path id="&lt;Path&gt;" class="s7" d="m617.8 302.1h-22.7v-22.7h22.7z"/>
				<path id="&lt;Path&gt;" class="s7" d="m617.8 327.5h-22.7v-22.7h22.7z"/>
				<path id="&lt;Path&gt;" class="s7" d="m617.8 352.9h-22.7v-22.7h22.7z"/>
				<path id="&lt;Path&gt;" class="s2" d="m97.1 20.1v19.3"/>
				<path id="&lt;Path&gt;" class="s2" d="m116 44.1c0 2.9-2.3 5.2-5.1 5.2-2.9 0-5.2-2.3-5.2-5.2 0-2.9 2.3-5.2 5.2-5.2 2.8 0 5.1 2.3 5.1 5.2z"/>
				<path id="&lt;Path&gt;" class="s2" d="m110.9 20.1v19.3"/>
				<path id="&lt;Path&gt;" class="s2" d="m131.4 44.1c0 2.9-2.4 5.2-5.2 5.2-2.9 0-5.2-2.3-5.2-5.2 0-2.9 2.3-5.2 5.2-5.2 2.8 0 5.2 2.3 5.2 5.2z"/>
				<path id="&lt;Path&gt;" class="s7" d="m144.8 22.8h-22.7v-22.7h22.7z"/>
				<path id="&lt;Path&gt;" class="s7" d="m173.9 22.8h-22.7v-22.7h22.7z"/>
				<path id="&lt;Path&gt;" class="s7" d="m203 22.8h-22.7v-22.7h22.7z"/>
				<path id="&lt;Path&gt;" class="s2" d="m126.2 20.1v19.3"/>
				<path id="&lt;Path&gt;" class="s2" d="m245.6 33.1c0 2.9-2.3 5.2-5.2 5.2-2.9 0-5.2-2.3-5.2-5.2 0-2.8 2.3-5.2 5.2-5.2 2.9 0 5.2 2.4 5.2 5.2z"/>
				<path id="&lt;Path&gt;" class="s2" d="m234.2 49.3c0 2.8-2.3 5.2-5.2 5.2-2.8 0-5.2-2.4-5.2-5.2 0-2.9 2.4-5.2 5.2-5.2 2.9 0 5.2 2.3 5.2 5.2z"/>
				<path id="&lt;Path&gt;" class="s2" d="m241.9 64.1c0 2.9-2.3 5.2-5.2 5.2-2.9 0-5.2-2.3-5.2-5.2 0-2.9 2.3-5.2 5.2-5.2 2.9 0 5.2 2.3 5.2 5.2z"/>
				<path id="&lt;Path&gt;" class="s2" d="m139.9 20.1v19.3"/>
				<path id="&lt;Path&gt;" class="s2" d="m231.5 64.1h-7.6l-8.5-10.3h-45.9l-15.4-14.4v-16.6"/>
				<path id="&lt;Path&gt;" class="s2" d="m223.9 49.3h-52l-12.7-12.6v-13.9"/>
				<path id="&lt;Path&gt;" class="s2" d="m235.2 33.1h-11.3l-10.5 10.3h-36.3l-11.1-9.8v-10.8"/>
				<path id="&lt;Path&gt;" class="s2" d="m257-7.4v12.8l-10.6 11.7h-45.8"/>
				<path id="&lt;Path&gt;" class="s2" d="m249.9-13.4v15.5l-9.5 9.3h-39.8"/>
				<path id="&lt;Path&gt;" class="s2" d="m243.4-22.4v21.4l-6.2 6.4h-33.8"/>
				<path id="&lt;Path&gt;" class="s2" d="m275.9-8.5v31l-7.2 7.3v13.8l-5.7 5.7v22.2"/>
				<path id="&lt;Path&gt;" class="s2" d="m283-7.4v31.2l-9.6 9.3v21.4"/>
				<path id="&lt;Path&gt;" class="s2" d="m289.7-7.4v85.5"/>
				<path id="&lt;Path&gt;" class="s2" d="m294.9-7.4v18.8l10.3 11.4v93.1l-15.5 12.9"/>
				<path id="&lt;Path&gt;" class="s2" d="m301.4-8.5v17.6l10.5 11v110.7"/>
				<path id="&lt;Path&gt;" class="s2" d="m306.6-7.4v13.7l13.7 13.8v24"/>
				<path id="&lt;Path&gt;" class="s2" d="m320.4 69.8v56.5l33 33.8v29l-15.5 15"/>
				<path id="&lt;Path&gt;" class="s2" d="m328.5 111.1v13.5l36.9 36.5v32l-8.5 8"/>
				<path id="&lt;Path&gt;" class="s2" d="m372.9 100.7v109.8"/>
				<path id="&lt;Path&gt;" class="s2" d="m343 107.2v-68.9l21.5-21.5v-25.3"/>
				<path id="&lt;Path&gt;" class="s2" d="m332.7 85.2v-52.1l21.4-21.4v-25.1"/>
				<path id="&lt;Path&gt;" class="s2" d="m352.4 123.6v-63.7l20.5-21.6v-49.2"/>
				<path id="&lt;Path&gt;" class="s2" d="m383.3 14.1v9.7l11 10.9v60.9l-12.8 12.7v72.3"/>
				<path id="&lt;Path&gt;" class="s2" d="m392.5 4.8v19.2l10 9.1v66.3l-13 13v51.6"/>
				<path id="&lt;Path&gt;" class="s2" d="m389.5 205.3v-7.6l8.5-8.6v-73.5l12-12v-72.4l-8.4-8.4v-11.3l16.3-16.2"/>
				<path id="&lt;Path&gt;" class="s2" d="m415.9 20.1v46.3l11.1 11.1v25.6l-15.1 15.1v50.1"/>
				<path id="&lt;Path&gt;" class="s2" d="m425.2 11.4v6.9l-5.4 5.5v40l12.9 12.9v29.6l-14.8 14.8v16.5l4.5 4.5"/>
				<path id="&lt;Path&gt;" class="s2" d="m500.3 108.7l-17.4-17.5h-37.5l-8-7.9v-24.8l6.5-6.4v-45.8"/>
				<path id="&lt;Path&gt;" class="s2" d="m427 126.8v-9.2l22-22.1h19.9l13.3 13.4"/>
				<path id="&lt;Path&gt;" class="s2" d="m439.6 130.2v-15.1l9.3-9.2h5.7"/>
				<path id="&lt;Path&gt;" class="s2" d="m484.4 85.2h-34.5l-6.4-6.4v-17.7l9.2-9.2v-40.8l9.3-9.3"/>
				<path id="&lt;Path&gt;" class="s2" d="m462.2 27.9v-12.5l13.7-13.6h62.5"/>
				<path id="&lt;Path&gt;" class="s2" d="m475.4 43.4v-11.9l-7.2-7.1v-7.3l10-10h53.7l7.1 7.1"/>
				<path id="&lt;Path&gt;" class="s8" d="m432.7 160.1l34.7-34.7h97.5"/>
				<path id="&lt;Path&gt;" class="s2" d="m411.9 200.1l56.2-56.2h24.3"/>
				<path id="&lt;Path&gt;" class="s5" d="m731.5 25.9l-15.2 15.2v108l-31.9 32h-41.5l-22-22h-143.5l-61.5 61.5"/>
				<path id="&lt;Path&gt;" class="s7" d="m327.8 185.4h-18.8c-3.2 0-5.9-2.6-5.9-5.8v-18.8c0-3.3 2.7-5.9 5.9-5.9h18.8c3.2 0 5.9 2.6 5.9 5.9v18.8c0 3.2-2.7 5.8-5.9 5.8z"/>
				<path id="&lt;Path&gt;" class="s7" d="m512.1 50.1h-14c-4.6 0-8.2-3.7-8.2-8.2v-17c0-4.6 3.6-8.3 8.2-8.3h14c4.6 0 8.3 3.7 8.3 8.3v17c0 4.5-3.7 8.2-8.3 8.2z"/>
				<path id="&lt;Path&gt;" class="s7" d="m477.6 78.7h-18.4c-2.5 0-4.6-2.1-4.6-4.6v-10.3c0-2.5 2.1-4.6 4.6-4.6h18.4c2.5 0 4.6 2.1 4.6 4.6v10.3c0 2.5-2.1 4.6-4.6 4.6z"/>
				<path id="&lt;Path&gt;" class="s7" d="m572.2 80h-5.2c-2.6 0-4.6-2.1-4.6-4.7v-35.3c0-2.6 2-4.7 4.6-4.7h5.2c2.6 0 4.7 2.1 4.7 4.7v35.3c0 2.6-2.1 4.7-4.7 4.7z"/>
				<path id="&lt;Path&gt;" class="s7" d="m649.2 87.6h-45.7c-2.3 0-4.1-1.9-4.1-4.1v-2.7c0-2.2 1.8-4.1 4.1-4.1h45.7c2.3 0 4.2 1.9 4.2 4.1v2.7c0 2.2-1.9 4.1-4.2 4.1z"/>
				<g id="&lt;Group&gt;">
					<path id="&lt;Path&gt;" class="s7" d="m512.4 150.1c-1.4 0-2.5-1.1-2.5-2.5v-10.8c0-1.4 1.1-2.5 2.5-2.5 1.3 0 2.5 1.1 2.5 2.5v10.8c0 1.4-1.2 2.5-2.5 2.5z"/>
					<path id="&lt;Path&gt;" class="s7" d="m520.6 150.1c-1.3 0-2.5-1.1-2.5-2.5v-10.8c0-1.4 1.2-2.5 2.5-2.5 1.4 0 2.5 1.1 2.5 2.5v10.8c0 1.4-1.1 2.5-2.5 2.5z"/>
					<path id="&lt;Path&gt;" class="s7" d="m528.9 150.1c-1.4 0-2.5-1.1-2.5-2.5v-10.8c0-1.4 1.1-2.5 2.5-2.5 1.4 0 2.5 1.1 2.5 2.5v10.8c0 1.4-1.1 2.5-2.5 2.5z"/>
					<path id="&lt;Path&gt;" class="s7" d="m537.2 150.1c-1.4 0-2.5-1.1-2.5-2.5v-10.8c0-1.4 1.1-2.5 2.5-2.5 1.4 0 2.5 1.1 2.5 2.5v10.8c0 1.4-1.1 2.5-2.5 2.5z"/>
					<path id="&lt;Path&gt;" class="s7" d="m545.5 150.1c-1.4 0-2.5-1.1-2.5-2.5v-10.8c0-1.4 1.1-2.5 2.5-2.5 1.3 0 2.5 1.1 2.5 2.5v10.8c0 1.4-1.2 2.5-2.5 2.5z"/>
					<path id="&lt;Path&gt;" class="s7" d="m553.7 150.1c-1.3 0-2.5-1.1-2.5-2.5v-10.8c0-1.4 1.2-2.5 2.5-2.5 1.4 0 2.5 1.1 2.5 2.5v10.8c0 1.4-1.1 2.5-2.5 2.5z"/>
					<path id="&lt;Path&gt;" class="s7" d="m562 150.1c-1.4 0-2.5-1.1-2.5-2.5v-10.8c0-1.4 1.1-2.5 2.5-2.5 1.4 0 2.5 1.1 2.5 2.5v10.8c0 1.4-1.1 2.5-2.5 2.5z"/>
					<path id="&lt;Path&gt;" class="s7" d="m570.3 150.1c-1.4 0-2.5-1.1-2.5-2.5v-10.8c0-1.4 1.1-2.5 2.5-2.5 1.4 0 2.5 1.1 2.5 2.5v10.8c0 1.4-1.1 2.5-2.5 2.5z"/>
					<path id="&lt;Path&gt;" class="s7" d="m578.6 150.1c-1.4 0-2.5-1.1-2.5-2.5v-10.8c0-1.4 1.1-2.5 2.5-2.5 1.4 0 2.5 1.1 2.5 2.5v10.8c0 1.4-1.1 2.5-2.5 2.5z"/>
					<path id="&lt;Path&gt;" class="s7" d="m586.9 150.1c-1.4 0-2.5-1.1-2.5-2.5v-10.8c0-1.4 1.1-2.5 2.5-2.5 1.3 0 2.5 1.1 2.5 2.5v10.8c0 1.4-1.2 2.5-2.5 2.5z"/>
				</g>
				<g id="&lt;Group&gt;">
					<path id="&lt;Path&gt;" class="s7" d="m279.8 338.6c0-1.4 1.1-2.5 2.5-2.5h10.8c1.4 0 2.5 1.1 2.5 2.5 0 1.4-1.1 2.5-2.5 2.5h-10.8c-1.4 0-2.5-1.1-2.5-2.5z"/>
					<path id="&lt;Path&gt;" class="s7" d="m279.8 346.9c0-1.4 1.1-2.5 2.5-2.5h10.8c1.4 0 2.5 1.1 2.5 2.5 0 1.3-1.1 2.5-2.5 2.5h-10.8c-1.4 0-2.5-1.2-2.5-2.5z"/>
					<path id="&lt;Path&gt;" class="s7" d="m279.8 355.1c0-1.3 1.1-2.5 2.5-2.5h10.8c1.4 0 2.5 1.2 2.5 2.5 0 1.4-1.1 2.5-2.5 2.5h-10.8c-1.4 0-2.5-1.1-2.5-2.5z"/>
					<path id="&lt;Path&gt;" class="s7" d="m279.8 363.4c0-1.4 1.1-2.5 2.5-2.5h10.8c1.4 0 2.5 1.1 2.5 2.5 0 1.4-1.1 2.5-2.5 2.5h-10.8c-1.4 0-2.5-1.1-2.5-2.5z"/>
					<path id="&lt;Path&gt;" class="s7" d="m279.8 371.7c0-1.4 1.1-2.5 2.5-2.5h10.8c1.4 0 2.5 1.1 2.5 2.5 0 1.4-1.1 2.5-2.5 2.5h-10.8c-1.4 0-2.5-1.1-2.5-2.5z"/>
					<path id="&lt;Path&gt;" class="s7" d="m279.8 380c0-1.4 1.1-2.5 2.5-2.5h10.8c1.4 0 2.5 1.1 2.5 2.5 0 1.3-1.1 2.5-2.5 2.5h-10.8c-1.4 0-2.5-1.2-2.5-2.5z"/>
					<path id="&lt;Path&gt;" class="s7" d="m279.8 388.2c0-1.3 1.1-2.5 2.5-2.5h10.8c1.4 0 2.5 1.2 2.5 2.5 0 1.4-1.1 2.5-2.5 2.5h-10.8c-1.4 0-2.5-1.1-2.5-2.5z"/>
					<path id="&lt;Path&gt;" class="s7" d="m279.8 396.5c0-1.4 1.1-2.5 2.5-2.5h10.8c1.4 0 2.5 1.1 2.5 2.5 0 1.4-1.1 2.5-2.5 2.5h-10.8c-1.4 0-2.5-1.1-2.5-2.5z"/>
					<path id="&lt;Path&gt;" class="s7" d="m279.8 404.8c0-1.4 1.1-2.5 2.5-2.5h10.8c1.4 0 2.5 1.1 2.5 2.5 0 1.4-1.1 2.5-2.5 2.5h-10.8c-1.4 0-2.5-1.1-2.5-2.5z"/>
					<path id="&lt;Path&gt;" class="s7" d="m279.8 413.1c0-1.4 1.1-2.5 2.5-2.5h10.8c1.4 0 2.5 1.1 2.5 2.5 0 1.4-1.1 2.5-2.5 2.5h-10.8c-1.4 0-2.5-1.1-2.5-2.5z"/>
				</g>
				<path id="&lt;Path&gt;" class="s2" d="m478.9 64.1h38.5l11.5-11.5h38.9"/>
				<path id="&lt;Path&gt;" class="s2" d="m571.6 57.1h-40.5l-10.5 10.5h-41.7"/>
				<path id="&lt;Path&gt;" class="s2" d="m570.3 62.1h-35.9l-11.3 11.2h-42.8"/>
				<path id="&lt;Path&gt;" class="s2" d="m573.1 4.4l5.3 5.3v8.4l44 43.6v23.9l-7.5 6.5h-71.9l-15.1 15.1"/>
				<path id="&lt;Path&gt;" class="s2" d="m572.8 20l43.3 41.7v20.5"/>
				<path id="&lt;Path&gt;" class="s2" d="m585.4 4.7v13.2l43.1 43.8v17.1"/>
				<path id="&lt;Path&gt;" class="s2" d="m635.1 78.8v-17.1l-44.1-45v-8.1l4.9-4.9"/>
				<path id="&lt;Path&gt;" class="s2" d="m601.9 14.8v6.8l39.3 40.1v17.1"/>
				<path id="&lt;Path&gt;" class="s2" d="m626.4 3.7v-8.4"/>
				<path id="&lt;Path&gt;" class="s2" d="m640.9 3.7v-8.4"/>
				<path id="&lt;Path&gt;" class="s2" d="m655.4 3.7v-8.4"/>
				<path id="&lt;Path&gt;" class="s2" d="m669.9 3.7v-8.4"/>
				<path id="&lt;Path&gt;" class="s2" d="m635.1 85.9l-11.5 11.5h-65.6l-9.8 9.8"/>
				<path id="&lt;Path&gt;" class="s2" d="m708.5-7l-32.2 32.3v61.9l-11.6 11.6h-27.8l-10.5 10.5h-17.8"/>
				<path id="&lt;Path&gt;" class="s2" d="m713.6-8.2v6.5l-31.5 31.5v61.5l-13.7 13.8h-27.2l-12.4 12.4"/>
				<path id="&lt;Path&gt;" class="s2" d="m719.6-5.7v9.9l-31.1 31.1v62.4l-12.1 12.1h-29.8l-18.1 18h-19.9"/>
				<path id="&lt;Path&gt;" class="s2" d="m699.1 76.7v62.7l-21.7 21.7h-27.6l-21.3-21.3h-19.9"/>
				<path id="&lt;Path&gt;" class="s2" d="m730.8-7v14.1l-29.9 30v14"/>
				<path id="&lt;Path&gt;" class="s2" d="m736.9 50.1v102.5l-46 46h-55l-19.8-19.8h-139l-55.3 55.3"/>
				<path id="&lt;Path&gt;" class="s2" d="m744.9 67.6v87.1l-54.5 54.6h-25.7"/>
				<g id="&lt;Group&gt;">
					<path id="&lt;Path&gt;" class="s7" d="m337.9 160.1h-39.9v-2h39.9z"/>
					<path id="&lt;Path&gt;" class="s7" d="m337.9 165.1h-39.9v-2h39.9z"/>
					<path id="&lt;Path&gt;" class="s7" d="m337.9 170.2h-39.9v-2h39.9z"/>
					<path id="&lt;Path&gt;" class="s7" d="m337.9 175.2h-39.9v-2h39.9z"/>
					<path id="&lt;Path&gt;" class="s7" d="m337.9 180.2h-39.9v-2h39.9z"/>
				</g>
				<g id="&lt;Group&gt;">
					<path id="&lt;Path&gt;" class="s7" d="m459.1 57.1v23.7h-1.9v-23.7z"/>
					<path id="&lt;Path&gt;" class="s7" d="m464.2 57.1v23.7h-2v-23.7z"/>
					<path id="&lt;Path&gt;" class="s7" d="m469.2 57.1v23.7h-2v-23.7z"/>
					<path id="&lt;Path&gt;" class="s7" d="m474.2 57.1v23.7h-1.9v-23.7z"/>
					<path id="&lt;Path&gt;" class="s7" d="m479.3 57.1v23.7h-2v-23.7z"/>
				</g>
				<g id="&lt;Group&gt;">
					<path id="&lt;Path&gt;" class="s7" d="m525.3 24h-39.9v-1.9h39.9z"/>
					<path id="&lt;Path&gt;" class="s7" d="m525.3 29.1h-39.9v-2h39.9z"/>
					<path id="&lt;Path&gt;" class="s7" d="m525.3 34.1h-39.9v-2h39.9z"/>
					<path id="&lt;Path&gt;" class="s7" d="m525.3 39.1h-39.9v-1.9h39.9z"/>
					<path id="&lt;Path&gt;" class="s7" d="m525.3 44.2h-39.9v-2h39.9z"/>
				</g>
				<g id="&lt;Group&gt;">
					<path id="&lt;Path&gt;" class="s7" d="m581.1 41.6h-14.2v-2.2h14.2z"/>
					<path id="&lt;Path&gt;" class="s7" d="m581.1 47.2h-14.2v-2.2h14.2z"/>
					<path id="&lt;Path&gt;" class="s7" d="m581.1 52.9h-14.2v-2.3h14.2z"/>
					<path id="&lt;Path&gt;" class="s7" d="m581.1 58.5h-14.2v-2.2h14.2z"/>
					<path id="&lt;Path&gt;" class="s7" d="m581.1 64.1h-14.2v-2.2h14.2z"/>
					<path id="&lt;Path&gt;" class="s7" d="m581.1 69.8h-14.2v-2.2h14.2z"/>
					<path id="&lt;Path&gt;" class="s7" d="m581.1 75.5h-14.2v-2.2h14.2z"/>
				</g>
				<path id="&lt;Path&gt;" class="s2" d="m292.8 314.6l25.1-25.1"/>
				<path id="&lt;Path&gt;" class="s5" d="m432.6 481.1l-30.1-30.1h-69.2l-23.6-23.6v-104.5l20.8-20.8"/>
				<path id="&lt;Path&gt;" class="s2" d="m405.2 435.9h-63.6l-15.8-15.8v-89.8l13.3-13.3"/>
				<path id="&lt;Path&gt;" class="s2" d="m376.6 427.4h-29.2l-12-12v-79.3l20.8-20.8"/>
				<path id="&lt;Path&gt;" class="s2" d="m418.4 292.1l10.2 10.2v21.7"/>
				<path id="&lt;Path&gt;" class="s2" d="m422.9 278l16.6 16.6v39.6l-5.3 5.4"/>
				<path id="&lt;Path&gt;" class="s2" d="m413.2 332.7l-14.1 14.2h-45.7"/>
				<path id="&lt;Path&gt;" class="s2" d="m413.2 345l-14.1 14.1h-45.7"/>
				<path id="&lt;Path&gt;" class="s2" d="m412.5 356.9l-14.5 14.4h-44.6"/>
				<path id="&lt;Path&gt;" class="s2" d="m413 369.7l-13.9 13.9h-45.7"/>
				<path id="&lt;Path&gt;" class="s2" d="m412.9 381.6l-14.9 14.9h-44.6"/>
				<path id="&lt;Path&gt;" class="s2" d="m434.3 380.1l5.9 5.9v43.1"/>
				<path id="&lt;Path&gt;" class="s2" d="m434.3 368.1l9.3 9.3v44.8l6.5 6.5v13.7"/>
				<path id="&lt;Path&gt;" class="s2" d="m426 453.8l23.1 23v11.1l-9.5 9.5v17.4"/>
				<path id="&lt;Path&gt;" class="s2" d="m294.9 432.6l31.8 31.9h66.9l30.3 30.2v10.4"/>
				<path id="&lt;Path&gt;" class="s2" d="m279.8 438.4h12.9l33.1 33.2h65.2l20.7 20.6v25.6"/>
				<path id="&lt;Path&gt;" class="s2" d="m266.4 453.8h8.6l42.4 42.3v21.7"/>
				<path id="&lt;Path&gt;" class="s2" d="m383.7 524.4h-38.7l-13.3-13.3v-12"/>
				<path id="&lt;Path&gt;" class="s2" d="m349.7 478.8h30.4"/>
				<path id="&lt;Path&gt;" class="s2" d="m253.4 464.6h8l4.4-4.4h9.2l37.9 37.8v11.1l-12.1 12.1"/>
				<path id="&lt;Path&gt;" class="s2" d="m234.9 499.1v33.7"/>
				<path id="&lt;Path&gt;" class="s2" d="m247.7 499.1v33.7"/>
				<path id="&lt;Path&gt;" class="s2" d="m259.9 499.1v33.7"/>
				<path id="&lt;Path&gt;" class="s2" d="m273.8 499.1v33.7"/>
				<path id="&lt;Path&gt;" class="s4" d="m739.3 402.9c2.8 0 5.1 2.3 5.1 5.1 0 2.9-2.3 5.2-5.1 5.2-2.9 0-5.2-2.3-5.2-5.2 0-2.8 2.3-5.1 5.2-5.1z"/>
				<path id="&lt;Path&gt;" class="s4" d="m739.3 390c2.8 0 5.1 2.3 5.1 5.2 0 2.9-2.3 5.2-5.1 5.2-2.9 0-5.2-2.3-5.2-5.2 0-2.9 2.3-5.2 5.2-5.2z"/>
				<path id="&lt;Path&gt;" class="s4" d="m739.3 377.2c2.8 0 5.1 2.3 5.1 5.2 0 2.8-2.3 5.2-5.1 5.2-2.9 0-5.2-2.4-5.2-5.2 0-2.9 2.3-5.2 5.2-5.2z"/>
				<path id="&lt;Path&gt;" class="s4" d="m739.3 364.3c2.8 0 5.1 2.4 5.1 5.2 0 2.9-2.3 5.2-5.1 5.2-2.9 0-5.2-2.3-5.2-5.2 0-2.8 2.3-5.2 5.2-5.2z"/>
				<path id="&lt;Path&gt;" class="s2" d="m739.3 408h33.6"/>
				<path id="&lt;Path&gt;" class="s2" d="m739.3 395.2h33.6"/>
				<path id="&lt;Path&gt;" class="s2" d="m739.3 383h33.6"/>
				<path id="&lt;Path&gt;" class="s2" d="m739.3 369.1h33.6"/>
				<path id="&lt;Path&gt;" class="s2" d="m434 353.9l13.8 13.9v50.6l7.7 7.7v11.9l4.2 4.2v16.7"/>
				<path id="&lt;Path&gt;" class="s2" d="m479.3 485.8v-45.3l-11.4-11.4v-80.4l9.1-9.1v-20.8"/>
				<path id="&lt;Path&gt;" class="s2" d="m499 493.9l-12.8-12.8v-45.2l-9.3-9.4v-67.4l13.5-13.5v-26.8"/>
				<path id="&lt;Path&gt;" class="s2" d="m421.8 254.6h15.5l16.3-16.2v-16.3l28.8-28.8h130.7l38.8 38.8h8.5"/>
				<path id="&lt;Path&gt;" class="s2" d="m440.6 226.4l40.4-40.5h132.9l33.5 33.5h30.4"/>
				<path id="&lt;Path&gt;" class="s2" d="m512.4 204.1h66.2l24.4 24.5"/>
				<path id="&lt;Path&gt;" class="s2" d="m570.3 232.4h-67.9l-16.7-16.8"/>
				<path id="&lt;Path&gt;" class="s2" d="m570.2 244.7l-5.3-5.4h-62.5l-18.7-18.7h-6.8"/>
				<path id="&lt;Path&gt;" class="s2" d="m514.9 256.1h44.3l9.1 9.1h29.7"/>
				<path id="&lt;Path&gt;" class="s2" d="m598 283.1h-77.5l-10.6-10.7h-22.6l-8-8h-21.3"/>
				<path id="&lt;Path&gt;" class="s2" d="m603 290.5h-83.7l-10.6-10.6h-33"/>
				<path id="&lt;Path&gt;" class="s2" d="m458 294.3h18.9l8.5-8.5h20.6l13.3 13.3h80.4"/>
				<path id="&lt;Path&gt;" class="s2" d="m500.9 432.6v-14.3l6.2-6.2v-76.8l26.6-26.5h64.3"/>
				<path id="&lt;Path&gt;" class="s2" d="m514.9 417.8v-80.4l23.6-23.6h66.2"/>
				<path id="&lt;Path&gt;" class="s2" d="m529.9 434.2v-11.5l-7.7-7.6v-75.3l20-20h57.5"/>
				<path id="&lt;Path&gt;" class="s6" d="m533.4 468.6c0 11-9 20-20.1 20-11 0-20-9-20-20 0-11.1 9-20.1 20-20.1 11.1 0 20.1 9 20.1 20.1z"/>
				<path id="&lt;Path&gt;" class="s6" d="m526.5 468.6c0 7.2-5.9 13.1-13.2 13.1-7.2 0-13.1-5.9-13.1-13.1 0-7.3 5.9-13.2 13.1-13.2 7.3 0 13.2 5.9 13.2 13.2z"/>
				<path id="&lt;Path&gt;" class="s6" d="m517.6 468.6c0 2.3-1.9 4.2-4.3 4.2-2.3 0-4.2-1.9-4.2-4.2 0-2.4 1.9-4.3 4.2-4.3 2.4 0 4.3 1.9 4.3 4.3z"/>
				<path id="&lt;Path&gt;" class="s2" d="m552.3 474.2l7.6 7.5v14.7l-8.9 8.9h-87.8"/>
				<path id="&lt;Path&gt;" class="s2" d="m540.7 352.1v18.6l6.3 6.3v64.1l21 21v38.4l-11.3 11.3h-88.8l-19 19"/>
				<path id="&lt;Path&gt;" class="s2" d="m553.2 368.1v69.6l19.7 19.7v50.9l-9.9 10h-92.5l-14.1 14.1"/>
				<path id="&lt;Path&gt;" class="s2" d="m579.3 464.1v-7.1l-21.1-21.1v-59.1l6.2-6.1v-16.8"/>
				<path id="&lt;Path&gt;" class="s2" d="m632.7 261.1v97.1l-38.4 38.3v79.7l-11.6 11.6v43"/>
				<path id="&lt;Path&gt;" class="s8" d="m579.8 435.9v-72.7l18.2-18.2"/>
				<path id="&lt;Path&gt;" class="s2" d="m641.1 249.9v109.3l-39.4 39.4v78.4l-12.7 12.8v42.6"/>
				<path id="&lt;Path&gt;" class="s2" d="m595.1 532.4v-40l15.5-15.4v-77.6l39.4-39.4v-7.1"/>
				<path id="&lt;Path&gt;" class="s5" d="m699.3 505.3v-33.1l-22-21.9v-107.6l-19.6-19.6v-75.2"/>
				<path id="&lt;Path&gt;" class="s2" d="m682.6 500.5v-17l-19.1-19.2v-113.4l-9.3-9.3"/>
				<path id="&lt;Path&gt;" class="s2" d="m638.3 481.7v-30.6l-11.4-11.3v-36.8"/>
				<path id="&lt;Path&gt;" class="s2" d="m637.3 429.1v-26.1l2.8-2.9v-10"/>
				<path id="&lt;Path&gt;" class="s2" d="m668.3 489.7v-4.7l-18.3-18.4v-88.1"/>
				<path id="&lt;Path&gt;" class="s2" d="m638.4 526.9v-21.8l-11-11v-32.8"/>
				<path id="&lt;Path&gt;" class="s2" d="m619.8 474v22.3l11.4 11.4v23.1"/>
				<path id="&lt;Path&gt;" class="s2" d="m649.1 517.6h11.2l8.1 8h36.5l5.2 5.2"/>
				<path id="&lt;Path&gt;" class="s2" d="m717.2 528.9l-9.9-10h-37.9l-10.3-10.3"/>
				<path id="&lt;Path&gt;" class="s2" d="m711.9 447.9v23.9l9.4 9.5v52"/>
				<path id="&lt;Path&gt;" class="s2" d="m673.6 254v60.6l18.6 18.7v64.5"/>
				<path id="&lt;Path&gt;" class="s2" d="m702.7 378.5v-50.1l-20.4-20.4v-57.3l11.2-11.2v-25.4l62.6-62.6"/>
				<path id="&lt;Path&gt;" class="s2" d="m712.1 417.8v-94l-19-19v-51.4l14.2-14.1v-13"/>
				<path id="&lt;Path&gt;" class="s2" d="m728.9 445v52.2"/>
				<path id="&lt;Path&gt;" class="s2" d="m717.3 258.2v10.7l14.1 14.2v62.2l-11.9 11.9v55.8l20.3 20.2v97.6"/>
				<path id="&lt;Path&gt;" class="s2" d="m717.3 231.4v-24.3l31.9-32h13.7"/>
				<path id="&lt;Path&gt;" class="s2" d="m742.1 265.1l-12-12v-37.4l11.5-11.6"/>
				<path id="&lt;Path&gt;" class="s2" d="m746.5 532.4v-104.6l-18.2-18.2v-46.6l10.9-10.9v-21.9l5.2-5.2v-28.9"/>
			</g>
			<g id="&lt;Group&gt;" style="mix-blend-mode: overlay">
				<g id="&lt;Group&gt;">
					<g id="&lt;Group&gt;">
						<path id="&lt;Path&gt;" class="s9" d="m130 464.9c-6.8 0-12.3-5.5-12.3-12.2 0-6.8 5.5-12.3 12.3-12.3 6.8 0 12.3 5.5 12.3 12.3 0 6.7-5.5 12.2-12.3 12.2z"/>
						<path id="&lt;Path&gt;" class="s9" d="m100.9 464.9c-6.8 0-12.3-5.5-12.3-12.2 0-6.8 5.5-12.3 12.3-12.3 6.8 0 12.3 5.5 12.3 12.3 0 6.7-5.5 12.2-12.3 12.2z"/>
						<path id="&lt;Path&gt;" class="s9" d="m72 464.9c-6.8 0-12.3-5.5-12.3-12.2 0-6.8 5.5-12.3 12.3-12.3 6.8 0 12.3 5.5 12.3 12.3 0 6.7-5.5 12.2-12.3 12.2z"/>
						<path id="&lt;Path&gt;" class="s9" d="m43 464.9c-6.8 0-12.3-5.5-12.3-12.2 0-6.8 5.5-12.3 12.3-12.3 6.7 0 12.2 5.5 12.2 12.3 0 6.7-5.5 12.2-12.2 12.2z"/>
						<path id="&lt;Path&gt;" class="s9" d="m12.4 464.9c-6.8 0-12.3-5.5-12.3-12.2 0-6.8 5.5-12.3 12.3-12.3 6.8 0 12.3 5.5 12.3 12.3 0 6.7-5.5 12.2-12.3 12.2z"/>
						<path id="&lt;Path&gt;" class="s9" d="m130 464.9v55.3"/>
						<path id="&lt;Path&gt;" class="s9" d="m100.9 464.9v55.3"/>
						<path id="&lt;Path&gt;" class="s9" d="m72 464.9v52.8"/>
						<path id="&lt;Path&gt;" class="s9" d="m43 464.9v55.3"/>
						<path id="&lt;Path&gt;" class="s9" d="m12.4 464.9v52.8"/>
					</g>
					<g id="&lt;Group&gt;">
						<path id="&lt;Path&gt;" class="s9" d="m217.7 28.3c6.8 0 12.3 5.5 12.3 12.3 0 6.8-5.5 12.3-12.3 12.3-6.8 0-12.3-5.5-12.3-12.3 0-6.8 5.5-12.3 12.3-12.3z"/>
						<path id="&lt;Path&gt;" class="s9" d="m246.8 28.3c6.8 0 12.3 5.5 12.3 12.3 0 6.8-5.5 12.3-12.3 12.3-6.8 0-12.3-5.5-12.3-12.3 0-6.8 5.5-12.3 12.3-12.3z"/>
						<path id="&lt;Path&gt;" class="s9" d="m275.7 28.3c6.7 0 12.2 5.5 12.2 12.3 0 6.8-5.5 12.3-12.2 12.3-6.8 0-12.3-5.5-12.3-12.3 0-6.8 5.5-12.3 12.3-12.3z"/>
						<path id="&lt;Path&gt;" class="s9" d="m304.7 28.3c6.8 0 12.3 5.5 12.3 12.3 0 6.8-5.5 12.3-12.3 12.3-6.8 0-12.3-5.5-12.3-12.3 0-6.8 5.5-12.3 12.3-12.3z"/>
						<path id="&lt;Path&gt;" class="s9" d="m335.3 28.3c6.8 0 12.3 5.5 12.3 12.3 0 6.8-5.5 12.3-12.3 12.3-6.8 0-12.3-5.5-12.3-12.3 0-6.8 5.5-12.3 12.3-12.3z"/>
						<path id="&lt;Path&gt;" class="s9" d="m217.7 28.3v-55.3"/>
						<path id="&lt;Path&gt;" class="s9" d="m246.8 28.3v-55.3"/>
						<path id="&lt;Path&gt;" class="s9" d="m275.7 28.3v-52.8"/>
						<path id="&lt;Path&gt;" class="s9" d="m304.7 28.3v-55.3"/>
						<path id="&lt;Path&gt;" class="s9" d="m335.3 28.3v-52.8"/>
					</g>
					<path id="&lt;Path&gt;" class="s9" d="m160.2 420.2h-208.5v-47.2h208.5z"/>
					<path id="&lt;Path&gt;" class="s10" d="m125.3 348.8h-156.9c-4.6 0-8.2-3.7-8.2-8.2v-51.1c0-4.6 3.6-8.3 8.2-8.3h156.9c4.6 0 8.3 3.7 8.3 8.3v51.1c0 4.5-3.7 8.2-8.3 8.2z"/>
					<path id="&lt;Path&gt;" class="s9" d="m128.4 361.1h-161.2c-9.1 0-16.5-7.3-16.5-16.4v-57.3c0-9.1 7.4-16.4 16.5-16.4h161.2c9.1 0 16.5 7.3 16.5 16.4v57.3c0 9.1-7.4 16.4-16.5 16.4z"/>
					<g id="&lt;Group&gt;">
						<path id="&lt;Path&gt;" class="s9" d="m8.7 53.3h-13.1v-34.5h13.1z"/>
						<path id="&lt;Path&gt;" class="s9" d="m30.2 53.3h-13.1v-34.5h13.1z"/>
						<path id="&lt;Path&gt;" class="s9" d="m51.7 53.3h-13v-34.5h13z"/>
						<path id="&lt;Path&gt;" class="s9" d="m73.3 53.3h-13.1v-34.5h13.1z"/>
						<path id="&lt;Path&gt;" class="s9" d="m94.8 53.3h-13.1v-34.5h13.1z"/>
						<path id="&lt;Path&gt;" class="s9" d="m116.3 53.3h-13.1v-34.5h13.1z"/>
					</g>
					<g id="&lt;Group&gt;">
						<path id="&lt;Path&gt;" class="s9" d="m327.4 114.5h-13.1v-34.5h13.1z"/>
						<path id="&lt;Path&gt;" class="s9" d="m348.9 114.5h-13.1v-34.5h13.1z"/>
						<path id="&lt;Path&gt;" class="s9" d="m370.4 114.5h-13.1v-34.5h13.1z"/>
						<path id="&lt;Path&gt;" class="s9" d="m391.9 114.5h-13.1v-34.5h13.1z"/>
						<path id="&lt;Path&gt;" class="s9" d="m413.4 114.5h-13v-34.5h13z"/>
						<path id="&lt;Path&gt;" class="s9" d="m435 114.5h-13.1v-34.5h13.1z"/>
					</g>
					<path id="&lt;Path&gt;" class="s9" d="m-124.8 86.3h274l119.1 99.2v108.1l-83.3 83.3v195.7"/>
					<path id="&lt;Path&gt;" class="s10" d="m164.2 85.2c0 7.4-6 13.5-13.5 13.5-7.4 0-13.5-6.1-13.5-13.5 0-7.5 6.1-13.5 13.5-13.5 7.5 0 13.5 6 13.5 13.5z"/>
					<path id="&lt;Path&gt;" class="s10" d="m72.6 215.6c0 7.5-6 13.5-13.5 13.5-7.5 0-13.5-6-13.5-13.5 0-7.5 6-13.5 13.5-13.5 7.5 0 13.5 6 13.5 13.5z"/>
					<path id="&lt;Path&gt;" class="s10" d="m236.4 220.6c0 4.4-3.6 8-8 8-4.4 0-7.9-3.6-7.9-8 0-4.4 3.5-7.9 7.9-7.9 4.4 0 8 3.5 8 7.9z"/>
					<path id="&lt;Path&gt;" class="s10" d="m363.2 157.1c0 4.4-3.5 7.9-7.9 7.9-4.4 0-7.9-3.5-7.9-7.9 0-4.4 3.5-8 7.9-8 4.4 0 7.9 3.6 7.9 8z"/>
					<path id="&lt;Path&gt;" class="s10" d="m231.3 95.5c0 4.4-3.6 8-8 8-4.4 0-7.9-3.6-7.9-8 0-4.4 3.5-7.9 7.9-7.9 4.4 0 8 3.5 8 7.9z"/>
					<path id="&lt;Path&gt;" class="s10" d="m281.8 293.6c0 7.5-6.1 13.6-13.5 13.6-7.5 0-13.6-6.1-13.6-13.6 0-7.4 6.1-13.5 13.6-13.5 7.4 0 13.5 6.1 13.5 13.5z"/>
					<path id="&lt;Path&gt;" class="s9" d="m123.1-33.4v248.6l-64 0.4-89.4-105.5"/>
					<path id="&lt;Path&gt;" class="s9" d="m92 214.8c0 18.3-14.9 33.1-33.2 33.1-18.4 0-33.2-14.8-33.2-33.1 0-18.4 14.8-33.2 33.2-33.2 18.3 0 33.2 14.8 33.2 33.2z"/>
					<path id="&lt;Path&gt;" class="s9" d="m301.8 292.1c0 18.3-14.8 33.2-33.2 33.2-18.3 0-33.2-14.9-33.2-33.2 0-18.3 14.9-33.2 33.2-33.2 18.4 0 33.2 14.9 33.2 33.2z"/>
					<path id="&lt;Path&gt;" class="s10" d="m129.8 148.7h-37.6v-37.7h37.6z"/>
					<path id="&lt;Path&gt;" class="s10" d="m129.8 177.6h-37.6v-18.8h37.6z"/>
					<path id="&lt;Path&gt;" class="s9" d="m174.8 177.9h-37.6v-37.6h37.6z"/>
					<path id="&lt;Path&gt;" class="s9" d="m-64.8 249.1h223.3l79.6 131.5v210"/>
					<path id="&lt;Path&gt;" class="s9" d="m356.7-70.6v227.7l-131.7 66.3v-126.1l-69.5-58.8v-77.9"/>
				</g>
				<g id="&lt;Group&gt;">
					<g id="&lt;Group&gt;">
						<path id="&lt;Path&gt;" class="s9" d="m618.2 23.1c6.8 0 12.3 5.5 12.3 12.3 0 6.8-5.5 12.3-12.3 12.3-6.8 0-12.3-5.5-12.3-12.3 0-6.8 5.5-12.3 12.3-12.3z"/>
						<path id="&lt;Path&gt;" class="s9" d="m647.3 23.1c6.8 0 12.3 5.5 12.3 12.3 0 6.8-5.5 12.3-12.3 12.3-6.8 0-12.3-5.5-12.3-12.3 0-6.8 5.5-12.3 12.3-12.3z"/>
						<path id="&lt;Path&gt;" class="s9" d="m676.2 23.1c6.7 0 12.2 5.5 12.2 12.3 0 6.8-5.5 12.3-12.2 12.3-6.8 0-12.3-5.5-12.3-12.3 0-6.8 5.5-12.3 12.3-12.3z"/>
						<path id="&lt;Path&gt;" class="s9" d="m705.2 23.1c6.8 0 12.3 5.5 12.3 12.3 0 6.8-5.5 12.3-12.3 12.3-6.8 0-12.3-5.5-12.3-12.3 0-6.8 5.5-12.3 12.3-12.3z"/>
						<path id="&lt;Path&gt;" class="s9" d="m735.8 23.1c6.8 0 12.3 5.5 12.3 12.3 0 6.8-5.5 12.3-12.3 12.3-6.8 0-12.3-5.5-12.3-12.3 0-6.8 5.5-12.3 12.3-12.3z"/>
						<path id="&lt;Path&gt;" class="s9" d="m618.2 23.1v-55.3"/>
						<path id="&lt;Path&gt;" class="s9" d="m647.3 23.1v-55.3"/>
						<path id="&lt;Path&gt;" class="s9" d="m676.2 23.1v-52.8"/>
						<path id="&lt;Path&gt;" class="s9" d="m705.2 23.1v-55.3"/>
						<path id="&lt;Path&gt;" class="s9" d="m735.8 23.1v-52.8"/>
					</g>
					<g id="&lt;Group&gt;">
						<path id="&lt;Path&gt;" class="s9" d="m530.5 459.7c-6.8 0-12.3-5.5-12.3-12.2 0-6.8 5.5-12.3 12.3-12.3 6.8 0 12.3 5.5 12.3 12.3 0 6.7-5.5 12.2-12.3 12.2z"/>
						<path id="&lt;Path&gt;" class="s9" d="m501.4 459.7c-6.8 0-12.3-5.5-12.3-12.2 0-6.8 5.5-12.3 12.3-12.3 6.8 0 12.3 5.5 12.3 12.3 0 6.7-5.5 12.2-12.3 12.2z"/>
						<path id="&lt;Path&gt;" class="s9" d="m472.5 459.7c-6.8 0-12.3-5.5-12.3-12.2 0-6.8 5.5-12.3 12.3-12.3 6.8 0 12.3 5.5 12.3 12.3 0 6.7-5.5 12.2-12.3 12.2z"/>
						<path id="&lt;Path&gt;" class="s9" d="m443.5 459.7c-6.8 0-12.3-5.5-12.3-12.2 0-6.8 5.5-12.3 12.3-12.3 6.7 0 12.2 5.5 12.2 12.3 0 6.7-5.5 12.2-12.2 12.2z"/>
						<path id="&lt;Path&gt;" class="s9" d="m412.9 459.7c-6.8 0-12.3-5.5-12.3-12.2 0-6.8 5.5-12.3 12.3-12.3 6.8 0 12.3 5.5 12.3 12.3 0 6.7-5.5 12.2-12.3 12.2z"/>
						<path id="&lt;Path&gt;" class="s9" d="m530.5 459.7v55.3"/>
						<path id="&lt;Path&gt;" class="s9" d="m501.4 459.7v55.3"/>
						<path id="&lt;Path&gt;" class="s9" d="m472.5 459.7v52.8"/>
						<path id="&lt;Path&gt;" class="s9" d="m443.5 459.7v55.3"/>
						<path id="&lt;Path&gt;" class="s9" d="m412.9 459.7v52.8"/>
					</g>
					<path id="&lt;Path&gt;" class="s9" d="m588 67.9h208.4v47.1h-208.4z"/>
					<path id="&lt;Path&gt;" class="s10" d="m622.9 139.2h156.9c4.5 0 8.2 3.7 8.2 8.3v51.1c0 4.5-3.7 8.2-8.2 8.2h-156.9c-4.6 0-8.3-3.7-8.3-8.2v-51.1c0-4.6 3.7-8.3 8.3-8.3z"/>
					<path id="&lt;Path&gt;" class="s9" d="m619.8 126.9h161.2c9.1 0 16.4 7.4 16.4 16.5v57.2c0 9.1-7.3 16.5-16.4 16.5h-161.2c-9.1 0-16.5-7.4-16.5-16.5v-57.2c0-9.1 7.4-16.5 16.5-16.5z"/>
					<g id="&lt;Group&gt;">
						<path id="&lt;Path&gt;" class="s9" d="m739.5 434.7h13.1v34.5h-13.1z"/>
						<path id="&lt;Path&gt;" class="s9" d="m718 434.7h13v34.5h-13z"/>
						<path id="&lt;Path&gt;" class="s9" d="m696.4 434.7h13.1v34.5h-13.1z"/>
						<path id="&lt;Path&gt;" class="s9" d="m674.9 434.7h13.1v34.5h-13.1z"/>
						<path id="&lt;Path&gt;" class="s9" d="m653.4 434.7h13.1v34.5h-13.1z"/>
						<path id="&lt;Path&gt;" class="s9" d="m631.9 434.7h13.1v34.5h-13.1z"/>
					</g>
					<g id="&lt;Group&gt;">
						<path id="&lt;Path&gt;" class="s9" d="m421.8 373.5h13.1v34.5h-13.1z"/>
						<path id="&lt;Path&gt;" class="s9" d="m400.3 373.5h13.1v34.5h-13.1z"/>
						<path id="&lt;Path&gt;" class="s9" d="m378.8 373.5h13.1v34.5h-13.1z"/>
						<path id="&lt;Path&gt;" class="s9" d="m357.3 373.5h13v34.5h-13z"/>
						<path id="&lt;Path&gt;" class="s9" d="m335.7 373.5h13.1v34.5h-13.1z"/>
						<path id="&lt;Path&gt;" class="s9" d="m314.2 373.5h13.1v34.5h-13.1z"/>
					</g>
					<path id="&lt;Path&gt;" class="s9" d="m872.9 401.7h-273.9l-119.1-99.2v-108.1l83.3-83.3v-195.6"/>
					<path id="&lt;Path&gt;" class="s10" d="m583.9 402.9c0-7.5 6.1-13.6 13.6-13.6 7.4 0 13.5 6.1 13.5 13.6 0 7.4-6.1 13.5-13.5 13.5-7.5 0-13.6-6.1-13.6-13.5z"/>
					<path id="&lt;Path&gt;" class="s10" d="m675.6 272.4c0-7.5 6-13.5 13.5-13.5 7.4 0 13.5 6 13.5 13.5 0 7.5-6.1 13.5-13.5 13.5-7.5 0-13.5-6-13.5-13.5z"/>
					<path id="&lt;Path&gt;" class="s10" d="m511.8 267.4c0-4.4 3.6-8 8-8 4.3 0 7.9 3.6 7.9 8 0 4.4-3.6 7.9-7.9 7.9-4.4 0-8-3.5-8-7.9z"/>
					<path id="&lt;Path&gt;" class="s10" d="m384.9 330.9c0-4.3 3.6-7.9 8-7.9 4.4 0 7.9 3.6 7.9 7.9 0 4.4-3.5 8-7.9 8-4.4 0-8-3.6-8-8z"/>
					<path id="&lt;Path&gt;" class="s10" d="m516.9 392.5c0-4.4 3.6-7.9 8-7.9 4.3 0 7.9 3.5 7.9 7.9 0 4.4-3.6 7.9-7.9 7.9-4.4 0-8-3.5-8-7.9z"/>
					<path id="&lt;Path&gt;" class="s10" d="m466.4 194.4c0-7.5 6-13.5 13.5-13.5 7.5 0 13.5 6 13.5 13.5 0 7.5-6 13.5-13.5 13.5-7.5 0-13.5-6-13.5-13.5z"/>
					<path id="&lt;Path&gt;" class="s9" d="m625.1 521.4v-248.6l64-0.4 89.4 105.5"/>
					<path id="&lt;Path&gt;" class="s9" d="m656.2 273.3c0-18.4 14.9-33.2 33.2-33.2 18.4 0 33.2 14.8 33.2 33.2 0 18.3-14.8 33.2-33.2 33.2-18.3 0-33.2-14.9-33.2-33.2z"/>
					<path id="&lt;Path&gt;" class="s9" d="m446.3 195.9c0-18.3 14.9-33.1 33.2-33.1 18.4 0 33.2 14.8 33.2 33.1 0 18.4-14.8 33.2-33.2 33.2-18.3 0-33.2-14.8-33.2-33.2z"/>
					<path id="&lt;Path&gt;" class="s10" d="m618.4 339.4h37.6v37.6h-37.6z"/>
					<path id="&lt;Path&gt;" class="s10" d="m618.4 310.4h37.6v18.8h-37.6z"/>
					<path id="&lt;Path&gt;" class="s9" d="m573.4 310.1h37.6v37.6h-37.6z"/>
					<path id="&lt;Path&gt;" class="s9" d="m812.9 238.9h-223.2l-79.7-131.5v-209.9"/>
					<path id="&lt;Path&gt;" class="s9" d="m391.5 558.6v-227.7l131.7-66.3v126.2l69.5 58.7v77.9"/>
				</g>
				<path id="&lt;Path&gt;" class="s10" d="m374.8 295l-44.1-25.5v-50.9l44.1-25.4 44.1 25.4v50.9z"/>
				<path id="&lt;Path&gt;" class="s9" d="m374.8 313.1l-59.8-34.5v-69.1l59.8-34.5 59.8 34.5v69.1z"/>
				<path id="&lt;Path&gt;" class="s10" d="m493.4 44.4h-27.1v-27.1h27.1z"/>
				<path id="&lt;Path&gt;" class="s10" d="m493.3 62.4h-27v-9.6h27z"/>
				<path id="&lt;Path&gt;" class="s10" d="m276.5 437.8h-27.1v-27.1h27.1z"/>
				<path id="&lt;Path&gt;" class="s10" d="m276.4 455.8h-27v-9.6h27z"/>
			</g>
			<g id="&lt;Group&gt;">
				<path id="&lt;Path&gt;" class="s11" d="m484.9 529.3h-512.8v-558.6h512.8z"/>
				<path id="&lt;Path&gt;" class="s12" d="m221.6-4.9h532.5v511.2h-532.5z"/>
			</g>
			<g id="&lt;Group&gt;">
				<path id="&lt;Path&gt;" class="s13" d="m347.7 447.3h-399.5v-498.2h399.5z"/>
				<path id="&lt;Path&gt;" class="s14" d="m221.6-4.9h532.5v511.2h-532.5z"/>
			</g>
			<path id="&lt;Path&gt;" class="s15" d="m867.3 229.1c0 115.3-93.4 208.8-208.7 208.8-115.3 0-208.8-93.5-208.8-208.8 0-115.3 93.5-208.7 208.8-208.7 115.3 0 208.7 93.4 208.7 208.7z"/>
			<path id="&lt;Path&gt;" class="s16" d="m547.7 232.8c0 101.1-82 183.1-183.2 183.1-101.1 0-183.1-82-183.1-183.1 0-101.2 82-183.2 183.1-183.2 101.2 0 183.2 82 183.2 183.2z"/>
			<path id="&lt;Path&gt;" class="s17" d="m289.4 74c0 117.7-95.4 213.1-213.1 213.1-117.7 0-213.1-95.4-213.1-213.1 0-117.7 95.4-213.1 213.1-213.1 117.7 0 213.1 95.4 213.1 213.1z"/>
			<path id="&lt;Path&gt;" class="s18" d="m274.6 322c0 64.1-112.4 116-250.9 116-138.6 0-250.9-51.9-250.9-116 0-64 112.3-115.9 250.9-115.9 138.5 0 250.9 51.9 250.9 115.9z"/>
			<path id="&lt;Path&gt;" class="s19" d="m-85.2-151.9c0 64-112.3 115.9-250.8 115.9-138.6 0-250.9-51.9-250.9-115.9 0-64 112.3-115.9 250.9-115.9 138.5 0 250.8 51.9 250.8 115.9z"/>
			<path id="&lt;Path&gt;" class="s20" d="m1008.7 465c0 83.3-112.3 150.9-250.9 150.9-138.6 0-250.9-67.6-250.9-150.9 0-83.4 112.3-151 250.9-151 138.6 0 250.9 67.6 250.9 151z"/>
			<path id="&lt;Path&gt;" class="s21" d="m342.3 21.8c0 103-126.8 186.4-283.2 186.4-156.4 0-283.1-83.4-283.1-186.4 0-102.9 126.7-186.4 283.1-186.4 156.4 0 283.2 83.5 283.2 186.4z"/>
			<path id="&lt;Path&gt;" class="s22" d="m578.6 7.5c0 70.1-82.8 126.8-185 126.8-102.2 0-185-56.7-185-126.8 0-70 82.8-126.7 185-126.7 102.2 0 185 56.7 185 126.7z"/>
			<g id="&lt;Group&gt;" style="mix-blend-mode: overlay">
				<path id="&lt;Path&gt;" class="s23" d="m312.4 374.6h-342.4v-409.9h342.4z"/>
				<path id="&lt;Path&gt;" class="s24" d="m221.6-4.9h532.5v511.2h-532.5z"/>
			</g>
		</g>
	</g>
</svg>